<?xml version="1.0" encoding="UTF-8" standalone="no"?>
<svg
   viewBox="0 0 64 64"
   fill="none"
   stroke="currentColor"
   stroke-width="2.5"
   stroke-linecap="round"
   stroke-linejoin="round"
   version="1.1"
   id="svg9774"
   sodipodi:docname="compressor.svg"
   inkscape:version="1.1.1 (3bf5ae0d25, 2021-09-20)"
   xmlns:inkscape="http://www.inkscape.org/namespaces/inkscape"
   xmlns:sodipodi="http://sodipodi.sourceforge.net/DTD/sodipodi-0.dtd"
   xmlns="http://www.w3.org/2000/svg"
   xmlns:svg="http://www.w3.org/2000/svg">
  <defs
     id="defs9778" />
  <sodipodi:namedview
     id="namedview9776"
     pagecolor="#505050"
     bordercolor="#ffffff"
     borderopacity="1"
     inkscape:pageshadow="0"
     inkscape:pageopacity="0"
     inkscape:pagecheckerboard="1"
     showgrid="false"
     inkscape:zoom="10.350846"
     inkscape:cx="36.277227"
     inkscape:cy="19.03226"
     inkscape:window-width="1440"
     inkscape:window-height="890"
     inkscape:window-x="-6"
     inkscape:window-y="-6"
     inkscape:window-maximized="1"
     inkscape:current-layer="svg9774" />
  <!-- Compressor body -->
  <!-- Dome top -->
  <!-- Suction pipe (left) -->
  <!-- Discharge pipe (right) -->
  <!-- Electrical terminals top -->
  <!-- Internal piston indicator -->
  <!-- Mounting feet -->
  <path
     style="color:#000000;fill:#000000;-inkscape-stroke:none"
     d="m 28.869141,2.0097656 c -0.690356,0 -0.907299,0.5616715 -0.960169,1.25 l -0.289831,3.7734375 c -0.680859,0.3866473 -1.130508,0.9533895 -1.294922,1.7382813 -1.515246,1.8717746 -3.645425,2.4599576 -5.310577,3.9169656 -2.977462,2.60528 -5.394501,5.666558 -5.394501,10.571316 v 8.75 H 8.1191406 v -4.75 c 0,-0.690356 -0.5596441,-1.25 -1.25,-1.25 -0.6903559,0 -1.25,0.559644 -1.25,1.25 v 6 c 6.9e-5,0.690327 0.5596727,1.249931 1.25,1.25 h 8.7500004 v 10.75 c 0,2.808348 1.656557,5.183398 4,6.386718 v 4.363282 h -2.75 c -0.690356,0 -1.25,0.559644 -1.25,1.25 0,0.690356 0.559644,1.25 1.25,1.25 h 4 4 c 0.690356,0 1.25,-0.559644 1.25,-1.25 0,-0.690356 -0.559644,-1.25 -1.25,-1.25 h -2.75 v -3.652344 c 0.258686,0.02812 0.484012,0.152344 0.75,0.152344 h 20 c 0.265811,0 0.49148,-0.124262 0.75,-0.152344 v 3.652344 h -2.75 c -0.690356,0 -1.25,0.559644 -1.25,1.25 0,0.690356 0.559644,1.25 1.25,1.25 h 4 4 c 0.690356,0 1.25,-0.559644 1.25,-1.25 0,-0.690356 -0.559644,-1.25 -1.25,-1.25 h -2.75 v -4.361329 c 2.344764,-1.202878 4,-3.57935 4,-6.388671 v -16.75 h 8.75 c 0.690327,-6.9e-5 1.249931,-0.559673 1.25,-1.25 v -6 c 0,-0.690356 -0.559644,-1.25 -1.25,-1.25 -0.690356,0 -1.25,0.559644 -1.25,1.25 v 4.75 h -7.5 v -2.75 c 0,-4.904758 -2.31841,-7.966036 -5.295873,-10.571316 C 43.158116,11.231442 41.221291,10.449906 39.416016,8.7714844 39.251592,7.9856964 38.801018,7.4178441 38.119141,7.03125 L 37.82931,3.2597656 c -0.0529,-0.6883264 -0.269813,-1.25 -0.960169,-1.25 -0.690356,0 -0.907299,0.5616715 -0.960169,1.25 l -0.289831,3.7734375 c -0.47086,0.2673923 -0.771228,0.5958256 -1.019532,1.078125 -0.580726,-0.029715 -1.120519,-0.1015625 -1.730468,-0.1015625 -0.610254,0 -1.149468,0.071818 -1.730469,0.1015625 C 30.890064,7.6286312 30.590632,7.2985647 30.119141,7.03125 L 29.82931,3.2597656 c -0.0529,-0.6883264 -0.269813,-1.25 -0.960169,-1.25 z m 4,8.5000004 c 0.726145,0 1.203346,0.188088 1.871093,0.232422 0.499255,0.718206 1.199721,1.267578 2.128907,1.267578 0.718772,0 1.360432,-0.314057 1.853515,-0.775391 2.167415,0.535355 4.007264,1.314461 5.324219,2.466797 1.044173,0.913651 1.82604,2.062093 2.416016,3.402344 -1.07562,-0.6327 -2.259274,-1.09375 -3.59375,-1.09375 h -20 c -1.334477,0 -2.516177,0.46105 -3.591797,1.09375 0.589975,-1.340251 1.371843,-2.488693 2.416015,-3.402344 1.316996,-1.152371 3.156711,-1.931446 5.324219,-2.466797 0.493077,0.461302 1.132819,0.775391 1.851563,0.775391 0.929249,0 1.631616,-0.549289 2.130859,-1.267578 0.667297,-0.04427 1.143531,-0.232422 1.869141,-0.232422 z m -10.096677,7.129909 h 20 c 2.653119,0 5.910121,2.966972 5.910121,5.620091 v 4 18 c 0,2.653119 -3.160325,6.103474 -5.813444,6.103474 h -20 c -2.653119,0 -5.910121,-3.450355 -5.910121,-6.103474 v -12 -10 c 0,-2.653119 3.160325,-5.620091 5.813444,-5.620091 z m 4.096677,13.046828 c -0.690356,0 -1.25,-0.117093 -1.25,0.573263 0,0.690356 0.571114,0.447942 1.25,0.573263 h 3.666015 l -0.705078,1.733377 c -0.383772,0.574338 -0.22895,1.351075 0.345703,1.734375 0.574846,0.383392 1.351704,0.227671 1.734375,-0.347656 l 0.960938,-1.439453 0.958984,1.439453 c 0.382582,0.574115 1.157959,0.729715 1.732422,0.347656 0.575327,-0.382671 0.731048,-1.159529 0.347656,-1.734375 l -0.753416,-1.685039 3.615724,0.04834 c 0.690295,0.0092 1.346677,0.02042 1.346677,-0.66994 0,-0.690356 -0.559644,-0.573263 -1.25,-0.573263 h -6 z m 0.386707,6 c -0.69033,0.006 -1.636707,0.221276 -1.636707,0.911632 0,0.690356 0.946455,0.730269 1.636707,0.718278 l 11.129909,-0.193354 c 0.690252,-0.01199 1.733384,-0.172937 1.733384,-0.863293 0,-0.690356 -1.139731,-0.675988 -1.83006,-0.66994 z"
     id="line9772"
     sodipodi:nodetypes="ssccssccssscccsccssscsssccssccssscsssccscccsssccssccsssccsccssscscscsscscscsssscsssscssssscccccccccssscssssssss" />
</svg>
