<?xml version="1.0" encoding="UTF-8" standalone="no"?>
<svg
   viewBox="0 0 64 64"
   fill="none"
   stroke="currentColor"
   stroke-width="2.5"
   stroke-linecap="round"
   stroke-linejoin="round"
   version="1.1"
   id="svg9774"
   sodipodi:docname="compressor.svg"
   inkscape:version="1.1.1 (3bf5ae0d25, 2021-09-20)"
   xmlns:inkscape="http://www.inkscape.org/namespaces/inkscape"
   xmlns:sodipodi="http://sodipodi.sourceforge.net/DTD/sodipodi-0.dtd"
   xmlns="http://www.w3.org/2000/svg"
   xmlns:svg="http://www.w3.org/2000/svg">
  <defs
     id="defs9778" />
  <sodipodi:namedview
     id="namedview9776"
     pagecolor="#505050"
     bordercolor="#ffffff"
     borderopacity="1"
     inkscape:pageshadow="0"
     inkscape:pageopacity="0"
     inkscape:pagecheckerboard="1"
     showgrid="false"
     inkscape:zoom="10.34375"
     inkscape:cx="31.951662"
     inkscape:cy="32"
     inkscape:window-width="1440"
     inkscape:window-height="890"
     inkscape:window-x="-6"
     inkscape:window-y="-6"
     inkscape:window-maximized="1"
     inkscape:current-layer="svg9774" />
  <!-- Compressor body -->
  <!-- Dome top -->
  <!-- Suction pipe (left) -->
  <!-- Discharge pipe (right) -->
  <!-- Electrical terminals top -->
  <!-- Internal piston indicator -->
  <!-- Mounting feet -->
  <path
     style="color:#000000;fill:#000000;-inkscape-stroke:none"
     d="m 28.869141,2.0097656 a 1.25,1.25 0 0 0 -1.25,1.25 v 3.7734375 c -0.680859,0.3866473 -1.130508,0.9533895 -1.294922,1.7382813 -2.482013,0.6149772 -4.612192,1.5898666 -6.277344,3.0468746 -2.977462,2.60528 -4.427734,6.536649 -4.427734,11.441407 v 8.75 H 8.1191406 v -4.75 a 1.25,1.25 0 0 0 -1.25,-1.25 1.25,1.25 0 0 0 -1.25,1.25 v 6 a 1.250125,1.250125 0 0 0 1.25,1.25 h 8.7500004 v 10.75 c 0,2.808348 1.656557,5.183398 4,6.386718 v 4.363282 h -2.75 a 1.25,1.25 0 0 0 -1.25,1.25 1.25,1.25 0 0 0 1.25,1.25 h 4 4 a 1.25,1.25 0 0 0 1.25,-1.25 1.25,1.25 0 0 0 -1.25,-1.25 h -2.75 v -3.652344 c 0.258686,0.02812 0.484012,0.152344 0.75,0.152344 h 20 c 0.265811,0 0.49148,-0.124262 0.75,-0.152344 v 3.652344 h -2.75 a 1.25,1.25 0 0 0 -1.25,1.25 1.25,1.25 0 0 0 1.25,1.25 h 4 4 a 1.25,1.25 0 0 0 1.25,-1.25 1.25,1.25 0 0 0 -1.25,-1.25 h -2.75 v -4.361329 c 2.344764,-1.202878 4,-3.57935 4,-6.388671 v -16.75 h 8.75 a 1.250125,1.250125 0 0 0 1.25,-1.25 v -6 a 1.25,1.25 0 0 0 -1.25,-1.25 1.25,1.25 0 0 0 -1.25,1.25 v 4.75 h -7.5 v -2.75 c 0,-4.904758 -1.448319,-8.836127 -4.425782,-11.441407 C 44.028207,10.361351 41.898028,9.3864616 39.416016,8.7714844 39.251592,7.9856964 38.801018,7.4178441 38.119141,7.03125 V 3.2597656 a 1.25,1.25 0 0 0 -1.25,-1.25 1.25,1.25 0 0 0 -1.25,1.25 v 3.7734375 c -0.47086,0.2673923 -0.771228,0.5958256 -1.019532,1.078125 -0.580726,-0.029715 -1.120519,-0.1015625 -1.730468,-0.1015625 -0.610254,0 -1.149468,0.071818 -1.730469,0.1015625 C 30.890064,7.6286312 30.590632,7.2985647 30.119141,7.03125 V 3.2597656 a 1.25,1.25 0 0 0 -1.25,-1.25 z m 4,8.5000004 c 0.726145,0 1.203346,0.188088 1.871093,0.232422 0.499255,0.718206 1.199721,1.267578 2.128907,1.267578 0.718772,0 1.360432,-0.314057 1.853515,-0.775391 2.167415,0.535355 4.007264,1.314461 5.324219,2.466797 1.044173,0.913651 1.82604,2.062093 2.416016,3.402344 -1.07562,-0.6327 -2.259274,-1.09375 -3.59375,-1.09375 h -20 c -1.334477,0 -2.516177,0.46105 -3.591797,1.09375 0.589975,-1.340251 1.371843,-2.488693 2.416015,-3.402344 1.316996,-1.152371 3.156711,-1.931446 5.324219,-2.466797 0.493077,0.461302 1.132819,0.775391 1.851563,0.775391 0.929249,0 1.631616,-0.549289 2.130859,-1.267578 0.667297,-0.04427 1.143531,-0.232422 1.869141,-0.232422 z m -10,8 h 20 c 2.653119,0 4.75,2.096881 4.75,4.75 v 4 18 c 0,2.653119 -2.096881,4.75 -4.75,4.75 h -20 c -2.653119,0 -4.75,-2.096881 -4.75,-4.75 v -12 -10 c 0,-2.653119 2.096881,-4.75 4.75,-4.75 z m 4,11.5 a 1.25,1.25 0 0 0 -1.25,1.25 1.25,1.25 0 0 0 1.25,1.25 h 3.666015 l -0.705078,1.05664 a 1.25,1.25 0 0 0 0.345703,1.734375 1.25,1.25 0 0 0 1.734375,-0.347656 l 0.960938,-1.439453 0.958984,1.439453 a 1.25,1.25 0 0 0 1.732422,0.347656 1.25,1.25 0 0 0 0.347656,-1.734375 l -0.705078,-1.05664 h 3.664063 a 1.25,1.25 0 0 0 1.25,-1.25 1.25,1.25 0 0 0 -1.25,-1.25 h -6 z m 0,6 a 1.25,1.25 0 0 0 -1.25,1.25 1.25,1.25 0 0 0 1.25,1.25 h 12 a 1.25,1.25 0 0 0 1.25,-1.25 1.25,1.25 0 0 0 -1.25,-1.25 z"
     id="line9772" />
</svg>
