<?xml version="1.0" encoding="UTF-8" standalone="no"?>
<svg
   viewBox="0 0 64 64"
   fill="none"
   stroke="currentColor"
   stroke-width="2.5"
   stroke-linecap="round"
   stroke-linejoin="round"
   version="1.1"
   id="svg6225"
   sodipodi:docname="cop.svg"
   inkscape:version="1.1.1 (3bf5ae0d25, 2021-09-20)"
   xmlns:inkscape="http://www.inkscape.org/namespaces/inkscape"
   xmlns:sodipodi="http://sodipodi.sourceforge.net/DTD/sodipodi-0.dtd"
   xmlns="http://www.w3.org/2000/svg"
   xmlns:svg="http://www.w3.org/2000/svg">
  <defs
     id="defs6229" />
  <sodipodi:namedview
     id="namedview6227"
     pagecolor="#505050"
     bordercolor="#ffffff"
     borderopacity="1"
     inkscape:pageshadow="0"
     inkscape:pageopacity="0"
     inkscape:pagecheckerboard="1"
     showgrid="false"
     inkscape:zoom="10.34375"
     inkscape:cx="31.951662"
     inkscape:cy="32"
     inkscape:window-width="1440"
     inkscape:window-height="890"
     inkscape:window-x="-6"
     inkscape:window-y="-6"
     inkscape:window-maximized="1"
     inkscape:current-layer="svg6225" />
  <!-- Gauge arc -->
  <path
     style="color:#000000;fill:#000000;-inkscape-stroke:none"
     d="M 29.673828,17.056641 C 17.395045,17.835816 6.09637,28.510287 6.7207031,46.044922 A 1.25,1.25 0 0 0 8.0136719,47.25 1.25,1.25 0 0 0 9.21875,45.955078 C 8.6332031,29.509769 18.877498,20.245924 29.832031,19.550781 40.786565,18.855638 52.658132,26.69125 55.373047,46.171875 a 1.25,1.25 0 0 0 1.410156,1.066406 1.25,1.25 0 0 0 1.064453,-1.410156 C 55.005087,25.431532 41.952611,16.277465 29.673828,17.056641 Z"
     id="path6207" />
  <!-- Tick marks (low, mid, high) -->
  <path
     style="color:#000000;fill:#000000;-inkscape-stroke:none"
     d="m 11.160156,44.556641 a 1.25,1.25 0 0 0 -1.2499997,1.25 1.25,1.25 0 0 0 1.2499997,1.25 h 3.419922 a 1.25,1.25 0 0 0 1.25,-1.25 1.25,1.25 0 0 0 -1.25,-1.25 z"
     id="line6209" />
  <path
     style="color:#000000;fill:#000000;-inkscape-stroke:none"
     d="m 13.558594,31.882812 a 1.25,1.25 0 0 0 -1.675781,0.558594 1.25,1.25 0 0 0 0.558593,1.675781 l 4,2 a 1.25,1.25 0 0 0 1.675781,-0.558593 1.25,1.25 0 0 0 -0.558593,-1.675782 z"
     id="line6211" />
  <path
     style="color:#000000;fill:#000000;-inkscape-stroke:none"
     d="m 31.517578,20.005859 a 1.25,1.25 0 0 0 -1.25,1.25 v 4 a 1.25,1.25 0 0 0 1.25,1.25 1.25,1.25 0 0 0 1.25,-1.25 v -4 a 1.25,1.25 0 0 0 -1.25,-1.25 z"
     id="line6213" />
  <path
     style="color:#000000;fill:#000000;-inkscape-stroke:none"
     d="m 50.234375,32.103516 a 1.25,1.25 0 0 0 -0.953125,0.06836 l -4,2 a 1.25,1.25 0 0 0 -0.558594,1.677734 1.25,1.25 0 0 0 1.675781,0.558594 l 4,-2 a 1.25,1.25 0 0 0 0.558594,-1.677734 1.25,1.25 0 0 0 -0.722656,-0.626953 z"
     id="line6215" />
  <path
     style="color:#000000;fill:#000000;-inkscape-stroke:none"
     d="m 49.226562,44.943359 a 1.25,1.25 0 0 0 -1.25,1.25 1.25,1.25 0 0 0 1.25,1.25 h 4 a 1.25,1.25 0 0 0 1.25,-1.25 1.25,1.25 0 0 0 -1.25,-1.25 z"
     id="line6217" />
  <!-- Needle (pointing to good/high) -->
  <path
     style="color:#000000;fill:#000000;-inkscape-stroke:none"
     d="m 44.693359,26.958984 a 1.25,1.25 0 0 0 -1.734375,0.347657 l -12,18 a 1.25,1.25 0 0 0 0.347657,1.734375 1.25,1.25 0 0 0 1.734375,-0.347657 l 12,-18 a 1.25,1.25 0 0 0 -0.347657,-1.734375 z"
     id="line6219" />
  <!-- Pivot dot -->
  <g
     id="circle6221">
    <path
       style="color:#000000;fill:currentColor;stroke-width:2.5;-inkscape-stroke:none"
       d="m 35,46 c 0,1.656854 -1.343146,3 -3,3 -1.656854,0 -3,-1.343146 -3,-3 0,-1.656854 1.343146,-3 3,-3 1.656854,0 3,1.343146 3,3 z"
       id="path35757" />
    <path
       style="color:#000000;fill:#000000;-inkscape-stroke:none"
       d="m 32,41.75 c -2.332402,0 -4.25,1.917598 -4.25,4.25 0,2.332402 1.917598,4.25 4.25,4.25 2.332402,0 4.25,-1.917598 4.25,-4.25 0,-2.332402 -1.917598,-4.25 -4.25,-4.25 z m 0,2.5 c 0.981303,0 1.75,0.768697 1.75,1.75 0,0.981303 -0.768697,1.75 -1.75,1.75 -0.981303,0 -1.75,-0.768697 -1.75,-1.75 0,-0.981303 0.768697,-1.75 1.75,-1.75 z"
       id="path35759" />
  </g>
  <!-- Base line -->
  <path
     style="color:#000000;fill:#000000;-inkscape-stroke:none"
     d="M 8,48.75 A 1.25,1.25 0 0 0 6.75,50 1.25,1.25 0 0 0 8,51.25 H 56 A 1.25,1.25 0 0 0 57.25,50 1.25,1.25 0 0 0 56,48.75 Z"
     id="line6223" />
</svg>
