<?xml version="1.0" encoding="UTF-8" standalone="no"?>
<svg
   viewBox="0 0 64 64"
   fill="none"
   stroke="currentColor"
   stroke-width="2.5"
   stroke-linecap="round"
   stroke-linejoin="round"
   version="1.1"
   id="svg6225"
   sodipodi:docname="cop.svg"
   inkscape:version="1.1.1 (3bf5ae0d25, 2021-09-20)"
   xmlns:inkscape="http://www.inkscape.org/namespaces/inkscape"
   xmlns:sodipodi="http://sodipodi.sourceforge.net/DTD/sodipodi-0.dtd"
   xmlns="http://www.w3.org/2000/svg"
   xmlns:svg="http://www.w3.org/2000/svg">
  <defs
     id="defs6229" />
  <sodipodi:namedview
     id="namedview6227"
     pagecolor="#505050"
     bordercolor="#ffffff"
     borderopacity="1"
     inkscape:pageshadow="0"
     inkscape:pageopacity="0"
     inkscape:pagecheckerboard="1"
     showgrid="false"
     inkscape:zoom="3.6570679"
     inkscape:cx="-37.051541"
     inkscape:cy="36.09449"
     inkscape:window-width="1440"
     inkscape:window-height="890"
     inkscape:window-x="-6"
     inkscape:window-y="-6"
     inkscape:window-maximized="1"
     inkscape:current-layer="svg6225" />
  <!-- Gauge arc -->
  <path
     style="color:#000000;fill:#000000;-inkscape-stroke:none"
     d="M 31.345649,19.501042 C 19.043604,19.313095 7.6231753,29.695045 7.3491018,48.17181 7.373483,48.861576 7.1305444,49.304367 7.8203184,49.280211 8.510875,49.255841 8.1532042,48.876964 8.1279419,48.186439 8.4207792,29.092582 20.285883,20.078489 31.262159,20.158324 c 10.761181,0.07827 25.021351,8.198465 24.787625,27.753732 0.09484,0.68393 -0.04716,1.789817 0.636742,1.694805 0.683138,-0.09581 0.627801,-1.065282 0.532731,-1.748525 0.0094,-20.444931 -13.594825,-28.169703 -25.873608,-28.357294 z"
     id="path6207"
     sodipodi:nodetypes="scccscccs" />
  <!-- Tick marks (low, mid, high) -->
  <path
     style="color:#000000;fill:#000000;-inkscape-stroke:none"
     d="m 48.459498,33.52535 -3.226587,1.226586 c -0.617709,0.3089 -0.751947,1.000997 -0.751947,1.000997 0,0 0.672028,0.238134 1.289074,-0.0698 l 2.984894,-1.226586 c 0.61771,-0.308899 0.848625,-0.952658 0.848625,-0.952658 0,0 -0.374318,-0.534351 -1.144059,0.02147 z"
     id="line6215"
     sodipodi:nodetypes="ccccccc" />
  <path
     style="color:#000000;fill:#000000;-inkscape-stroke:none"
     d="m 31.584919,27.725567 0.09074,-3.450673 c -0.05116,-0.688743 -0.640414,-1.075774 -0.640414,-1.075774 0,0 -0.475521,0.531234 -0.425007,1.218997 l 0.0011,3.227089 c 0.05115,0.688744 0.55898,1.146849 0.55898,1.146849 0,0 0.636475,-0.14333 0.414639,-1.066492 z"
     id="line6215-9"
     sodipodi:nodetypes="ccccccc" />
  <path
     style="color:#000000;fill:#000000;-inkscape-stroke:none"
     d="m 20.240132,32.879786 -3.133455,-1.448048 c -0.652823,-0.225402 -1.241343,0.162744 -1.241343,0.162744 0,0 0.299859,0.646849 0.951526,0.872457 l 2.964421,1.27527 c 0.65282,0.225411 1.274418,-0.05984 1.274418,-0.05984 0,0 0.120075,-0.641269 -0.815556,-0.80262 z"
     id="line6215-9-2"
     sodipodi:nodetypes="ccccccc" />
  <path
     style="color:#000000;fill:#000000;-inkscape-stroke:none"
     d="m 15.662649,44.921623 -3.451619,-0.04134 c -0.68794,0.06101 -1.066497,0.655746 -1.066497,0.655746 0,0 0.537985,0.467868 1.224955,0.407516 l 3.226742,-0.04729 c 0.687941,-0.061 1.138731,-0.575338 1.138731,-0.575338 0,0 -0.152425,-0.634358 -1.072317,-0.399331 z"
     id="line6215-9-2-2"
     sodipodi:nodetypes="ccccccc" />
  <path
     style="color:#000000;fill:#000000;-inkscape-stroke:none"
     d="m 52.091468,44.79969 -3.451619,-0.04134 c -0.68794,0.06101 -1.066497,0.655746 -1.066497,0.655746 0,0 0.537985,0.467868 1.224955,0.407516 l 3.226742,-0.04729 c 0.687941,-0.061 1.138731,-0.575338 1.138731,-0.575338 0,0 -0.152425,-0.634358 -1.072317,-0.399331 z"
     id="line6215-9-2-2-1"
     sodipodi:nodetypes="ccccccc" />
  <!-- Needle (pointing to good/high) -->
  <path
     style="color:#000000;fill:#000000;-inkscape-stroke:none"
     d="m 44.306652,27.249014 c 0,0 -0.578291,-0.130993 -0.960961,0.444334 l -12,18 c -0.383392,0.574846 -0.614377,0.964998 -0.03905,1.347668 0.574846,0.383392 0.674968,-0.110699 1.057638,-0.686026 l 12,-18 c 0.383392,-0.574846 -0.05763,-1.105976 -0.05763,-1.105976 z"
     id="line6219"
     sodipodi:nodetypes="ccccccc" />
  <!-- Pivot dot -->
  <g
     id="circle6221">
    <path
       style="color:#000000;fill:currentColor;stroke-width:2.5;-inkscape-stroke:none"
       d="m 35,46 c 0,1.656854 -1.343146,3 -3,3 -1.656854,0 -3,-1.343146 -3,-3 0,-1.656854 1.343146,-3 3,-3 1.656854,0 3,1.343146 3,3 z"
       id="path35757" />
    <path
       style="color:#000000;fill:#000000;-inkscape-stroke:none"
       d="m 32,41.75 c -2.332402,0 -4.25,1.917598 -4.25,4.25 0,2.332402 1.917598,4.25 4.25,4.25 2.332402,0 4.25,-1.917598 4.25,-4.25 0,-2.332402 -1.917598,-4.25 -4.25,-4.25 z m 0,2.5 c 0.981303,0 1.75,0.768697 1.75,1.75 0,0.981303 -0.768697,1.75 -1.75,1.75 -0.981303,0 -1.75,-0.768697 -1.75,-1.75 0,-0.981303 0.768697,-1.75 1.75,-1.75 z"
       id="path35759" />
  </g>
  <!-- Base line -->
  <path
     style="color:#000000;fill:#000000;-inkscape-stroke:none"
     d="m 7.9516616,49.668429 c -0.6903559,0 -0.8149547,0.124599 -0.8149547,0.814955 0,0.690356 0.1245988,0.476586 0.8149547,0.476586 H 55.951662 c 0.690356,0 1.346676,0.165431 1.346676,-0.524925 0,-0.690356 -0.65632,-0.766616 -1.346676,-0.766616 z"
     id="line6223"
     sodipodi:nodetypes="sssssss" />
</svg>
