<?xml version="1.0" encoding="UTF-8" standalone="no"?>
<svg
   viewBox="0 0 64 64"
   fill="none"
   stroke="currentColor"
   stroke-width="2.5"
   stroke-linecap="round"
   stroke-linejoin="round"
   version="1.1"
   id="svg1785"
   sodipodi:docname="defrost.svg"
   inkscape:version="1.1.1 (3bf5ae0d25, 2021-09-20)"
   xmlns:inkscape="http://www.inkscape.org/namespaces/inkscape"
   xmlns:sodipodi="http://sodipodi.sourceforge.net/DTD/sodipodi-0.dtd"
   xmlns="http://www.w3.org/2000/svg"
   xmlns:svg="http://www.w3.org/2000/svg">
  <defs
     id="defs1789" />
  <sodipodi:namedview
     id="namedview1787"
     pagecolor="#505050"
     bordercolor="#ffffff"
     borderopacity="1"
     inkscape:pageshadow="0"
     inkscape:pageopacity="0"
     inkscape:pagecheckerboard="1"
     showgrid="false"
     inkscape:zoom="20.6875"
     inkscape:cx="30.912387"
     inkscape:cy="44.954683"
     inkscape:window-width="1440"
     inkscape:window-height="890"
     inkscape:window-x="-6"
     inkscape:window-y="-6"
     inkscape:window-maximized="1"
     inkscape:current-layer="svg1785" />
  <!-- Snowflake main axes -->
  <path
     style="color:#000000;fill:#000000;-inkscape-stroke:none"
     d="m 32,8.6654079 c -0.690356,0 -0.525536,0.5596443 -0.524924,1.25 l 0.02417,27.2749241 c 6.11e-4,0.690356 -0.165432,1.25 0.524924,1.25 0.690356,0 0.40469,-0.559644 0.404079,-1.25 L 32.404079,9.9154079 c -6.12e-4,-0.6903557 0.286277,-1.25 -0.404079,-1.25 z"
     id="line1751"
     sodipodi:nodetypes="sssssss" />
  <path
     style="color:#000000;fill:#000000;-inkscape-stroke:none"
     d="m 18.605521,15.60453 c -0.320441,0.08553 -0.593754,0.294909 -0.759766,0.582031 -0.344594,0.598134 0.168515,0.610396 0.766608,0.955062 l 25.559454,14.342698 c 0.598058,0.346253 1.055972,0.893495 1.401362,0.294938 0.344593,-0.598135 -0.271057,-0.781298 -0.86915,-1.125964 L 19.144575,16.310596 C 18.857297,16.144606 18.925977,15.51857 18.605521,15.60453 Z"
     id="line1753"
     sodipodi:nodetypes="cccccccc" />
  <path
     style="color:#000000;fill:#000000;-inkscape-stroke:none"
     d="m 44.57415,16.288137 c -0.320457,-0.08596 -0.661941,-0.04099 -0.949219,0.125 L 17.928755,31.13182 c -0.598093,0.344666 -0.632677,0.254386 -0.288083,0.852521 0.345389,0.598557 0.222238,0.427299 0.820296,0.08105 L 44.396406,17.893591 c 0.598093,-0.344666 1.282104,-0.425288 0.93751,-1.023423 -0.166012,-0.287121 -0.439325,-0.496497 -0.759766,-0.582031 z"
     id="line1755"
     sodipodi:nodetypes="cccccccc" />
  <!-- Snowflake branches top -->
  <path
     style="color:#000000;fill:#000000;-inkscape-stroke:none"
     d="m 27.70997,4.9433535 c -0.3317,-4.682e-4 -0.432462,0.058413 -0.667244,0.2927268 -0.489332,0.4883565 0.114897,0.6286068 0.60423,1.1169632 l 3.516616,3.2749249 c 0.488357,0.4893336 0.749454,1.0210556 1.23781,0.5317216 0.489333,-0.488356 0.05429,-0.7011142 -0.435045,-1.1894707 L 28.449721,5.6952948 C 28.21494,5.4609814 28.04167,4.9428853 27.70997,4.9433535 Z"
     id="line1757"
     sodipodi:nodetypes="cscccccc" />
  <path
     style="color:#000000;fill:#000000;-inkscape-stroke:none"
     d="m 36.471299,5.1004532 c -0.3317,-4.682e-4 -0.517054,0.2880207 -0.751835,0.5223341 l -3.033233,2.8640483 c -0.489333,0.4883565 -1.093563,0.7736222 -0.60423,1.2619787 0.488357,0.4893337 0.676946,-0.1148963 1.165303,-0.6042296 L 36.280536,6.280536 C 36.769869,5.7921795 37.374099,5.6035909 36.884766,5.1152344 36.649985,4.880921 36.802999,5.099985 36.471299,5.1004532 Z"
     id="line1759"
     sodipodi:nodetypes="ccccccsc" />
  <!-- Snowflake branches bottom -->
  <path
     style="color:#000000;fill:#000000;-inkscape-stroke:none"
     d="m 31.758308,37.064199 c -0.3317,-4.68e-4 -0.06992,0.541797 -0.304705,0.776111 l -4,4 c -0.489334,0.488356 -0.827702,0.556099 -0.338369,1.044456 0.488357,0.489333 0.435254,0.150965 0.923611,-0.338369 l 4,-4 c 0.489333,-0.488356 1.093562,-0.628607 0.604229,-1.116964 -0.234781,-0.234313 -0.553066,-0.365702 -0.884766,-0.365234 z"
     id="line1761"
     sodipodi:nodetypes="ccccccsc" />
  <path
     style="color:#000000;fill:#000000;-inkscape-stroke:none"
     d="m 32.531722,37.209215 c -0.3317,-4.69e-4 -0.649985,0.13092 -0.884766,0.365234 -0.489333,0.488356 0.114896,0.894468 0.60423,1.382825 l 3.468278,3.540785 c 0.488356,0.489333 0.676945,0.87604 1.165302,0.386707 0.489333,-0.488357 0.175134,-0.652777 -0.314199,-1.141133 l -3.468278,-3.540786 c -0.234782,-0.234313 -0.238867,-0.994101 -0.570567,-0.993632 z"
     id="line1763"
     sodipodi:nodetypes="cscccccc" />
  <!-- Snowflake branches left-top -->
  <path
     style="color:#000000;fill:#000000;-inkscape-stroke:none"
     d="m 16.392578,11.408203 c -0.602699,0.335695 -0.340959,0.65185 -0.0058,1.254874 l 2.124016,3.816392 c 0.335695,0.602699 0.617669,1.26383 1.220694,0.92872 0.602698,-0.335695 -8.45e-4,-0.788571 -0.335955,-1.391595 l -2.124015,-3.816393 c -0.335696,-0.602698 -0.275866,-1.127108 -0.87889,-0.791998 z"
     id="line1765"
     sodipodi:nodetypes="ccccccc" />
  <path
     style="color:#000000;fill:#000000;-inkscape-stroke:none"
     d="m 18.613269,16.633807 -3.782212,0.829098 c -0.674357,0.149678 -1.202007,0.134349 -1.05176,0.808579 0.149678,0.674357 0.681235,0.415859 1.355465,0.265611 l 3.782212,-0.829098 c 0.674357,-0.149678 1.236188,-0.134349 1.085941,-0.808579 -0.149678,-0.674357 -0.715416,-0.415859 -1.389646,-0.265611 z"
     id="line1767"
     sodipodi:nodetypes="ccccccc" />
  <!-- Snowflake branches right-bottom -->
  <path
     style="color:#000000;fill:#000000;-inkscape-stroke:none"
     d="m 44.131841,30.352548 c -0.602699,0.335695 -0.40932,0.788571 -0.07421,1.391596 l 2.260738,4.055655 c 0.335695,0.602698 0.68603,1.127108 1.289054,0.791998 0.602699,-0.335695 0.170057,-0.788571 -0.165052,-1.391596 l -2.260738,-4.055654 c -0.335695,-0.602699 -0.446767,-1.127109 -1.049791,-0.791999 z"
     id="line1769"
     sodipodi:nodetypes="ccccccc" />
  <path
     style="color:#000000;fill:#000000;-inkscape-stroke:none"
     d="m 48.865238,29.326183 -3.884753,0.829098 c -0.674357,0.149678 -1.236188,0.271071 -1.085941,0.945301 0.149678,0.674357 0.647055,0.5184 1.321285,0.368152 l 4.055655,-0.794917 c 0.674357,-0.149678 1.099466,-0.271071 0.949219,-0.945301 -0.149678,-0.674357 -0.681235,-0.55258 -1.355465,-0.402333 z"
     id="line1771"
     sodipodi:nodetypes="ccccccc" />
  <!-- Snowflake branches right-top -->
  <path
     style="color:#000000;fill:#000000;-inkscape-stroke:none"
     d="m 47.607422,11.408203 c -0.603024,-0.33511 -0.919179,0.394382 -1.254874,0.997081 l -2.158197,3.850572 c -0.335109,0.603025 -0.596849,1.090081 0.0059,1.425776 0.603024,0.33511 0.748277,-0.15512 1.083972,-0.757818 L 47.4766,12.833979 c 0.33511,-0.603025 0.733571,-1.090081 0.130872,-1.425776 z"
     id="line1773"
     sodipodi:nodetypes="cccccccc" />
  <path
     style="color:#000000;fill:#000000;-inkscape-stroke:none"
     d="m 45.257758,16.424859 c -0.67423,-0.150247 -1.145175,-0.233978 -1.294853,0.440379 -0.150247,0.67423 0.479944,0.795623 1.154301,0.945301 l 3.816392,0.863278 c 0.674231,0.150247 1.137427,0.272024 1.287105,-0.402333 0.150247,-0.67423 -0.472196,-0.833669 -1.146553,-0.983347 z"
     id="line1775"
     sodipodi:nodetypes="ccccccc" />
  <!-- Snowflake branches left-bottom -->
  <path
     style="color:#000000;fill:#000000;-inkscape-stroke:none"
     d="m 19.628897,30.728532 c -0.603024,-0.33511 -0.679916,0.291841 -1.015611,0.89454 l -2.021475,3.679671 c -0.33511,0.603024 -0.801932,0.953359 -0.199233,1.289054 0.603024,0.33511 0.611555,-0.257661 0.94725,-0.860359 l 2.021475,-3.679671 c 0.33511,-0.603025 0.870293,-0.98754 0.267594,-1.323235 z"
     id="line1777"
     sodipodi:nodetypes="ccccccc" />
  <path
     style="color:#000000;fill:#000000;-inkscape-stroke:none"
     d="m 15.134762,29.633807 c -0.67423,-0.150248 -1.205787,-0.579648 -1.355465,0.09471 -0.150247,0.67423 0.411584,0.761442 1.085941,0.91112 l 3.577129,0.829098 c 0.67423,0.150248 1.205788,0.306205 1.355466,-0.368152 0.150247,-0.67423 -0.411584,-0.487999 -1.085941,-0.637677 z"
     id="line1779"
     sodipodi:nodetypes="ccccccc" />
  <!-- Water drops (melting/defrost) -->
  <path
     style="color:#000000;fill:#000000;-inkscape-stroke:none"
     d="m 25.760745,45.879868 c 0,0.445364 -0.853778,0.248631 -1.072266,0.636719 -1.393283,2.470408 -2.021649,4.154049 -2.268569,6.086922 -0.12346,0.966437 0.31545,1.939298 0.88378,2.775881 0.56833,0.836583 0.782576,1.271893 1.897482,1.692876 0.258462,0.09805 0.542133,0.107661 0.80664,0.02734 1.25556,-0.382535 1.860244,-1.290271 2.480481,-2.176748 0.620237,-0.886478 0.693675,-1.622405 0.58887,-2.640148 -0.20961,-2.035486 -0.945182,-3.645495 -2.226574,-5.79347 -0.228566,-0.382996 -1.089844,-1.055388 -1.089844,-0.609375 z m 0.05909,1.427327 c 0.57955,1.1738 1.756572,0.94641 2.414511,4.941347 0.09894,0.600729 -0.112689,1.365686 -0.248047,1.724108 -0.45314,1.199894 -1.662662,1.721841 -2.163544,1.946251 -0.413105,-0.220821 -1.094963,0.759898 -2.335897,-1.508762 -0.156133,-0.285441 -0.351554,-1.320623 -0.374993,-1.87693 -0.157962,-3.749085 2.139744,-4.057438 2.70797,-5.226014 z"
     id="path1781"
     sodipodi:nodetypes="scssccsscsscsscssc" />
  <path
     style="color:#000000;fill:#000000;-inkscape-stroke:none"
     d="m 40.283209,45.844712 c -0.444917,0.0057 -0.853278,0.247431 -1.072265,0.634766 -1.393284,2.470407 -1.779958,3.622326 -2.026878,5.5552 -0.12346,0.966437 0.02737,2.277667 0.595703,3.11425 0.56833,0.836583 0.927591,1.467199 2.042497,1.888181 0.258091,0.09696 0.540997,0.105892 0.804687,0.02539 1.25556,-0.382535 1.473537,-0.613534 2.093774,-1.500012 0.620236,-0.886477 1.177058,-2.347479 1.072253,-3.365222 -0.209609,-2.035486 -1.138535,-3.595204 -2.419927,-5.743179 -0.228566,-0.382996 -0.643869,-0.615208 -1.089844,-0.609374 z m 0.0127,1.233974 c 0.578987,1.172953 2.624755,2.348664 2.557573,5.376392 -0.01351,0.608672 -0.07479,1.601584 -0.294432,1.915508 -0.162868,0.232781 -1.760741,1.383736 -2.26022,1.607883 -0.413869,-0.221043 -1.529881,-0.980097 -1.659159,-1.170394 -0.182828,-0.269124 -0.679143,-1.321307 -0.715316,-1.87693 -0.20631,-3.16895 1.803439,-4.684065 2.371554,-5.852459 z"
     id="path1781-5"
     sodipodi:nodetypes="ccssccsscccsscssc" />
</svg>
