<?xml version="1.0" encoding="UTF-8" standalone="no"?>
<svg
   viewBox="0 0 64 64"
   fill="none"
   stroke="currentColor"
   stroke-width="2.5"
   stroke-linecap="round"
   stroke-linejoin="round"
   version="1.1"
   id="svg1785"
   sodipodi:docname="defrost.svg"
   inkscape:version="1.1.1 (3bf5ae0d25, 2021-09-20)"
   xmlns:inkscape="http://www.inkscape.org/namespaces/inkscape"
   xmlns:sodipodi="http://sodipodi.sourceforge.net/DTD/sodipodi-0.dtd"
   xmlns="http://www.w3.org/2000/svg"
   xmlns:svg="http://www.w3.org/2000/svg">
  <defs
     id="defs1789" />
  <sodipodi:namedview
     id="namedview1787"
     pagecolor="#505050"
     bordercolor="#ffffff"
     borderopacity="1"
     inkscape:pageshadow="0"
     inkscape:pageopacity="0"
     inkscape:pagecheckerboard="1"
     showgrid="false"
     inkscape:zoom="10.34375"
     inkscape:cx="31.951662"
     inkscape:cy="38.380665"
     inkscape:window-width="1440"
     inkscape:window-height="890"
     inkscape:window-x="-6"
     inkscape:window-y="-6"
     inkscape:window-maximized="1"
     inkscape:current-layer="svg1785" />
  <!-- Snowflake main axes -->
  <path
     style="color:#000000;fill:#000000;-inkscape-stroke:none"
     d="M 32,4.75 A 1.25,1.25 0 0 0 30.75,6 V 42 A 1.25,1.25 0 0 0 32,43.25 1.25,1.25 0 0 0 33.25,42 V 6 A 1.25,1.25 0 0 0 32,4.75 Z"
     id="line1751" />
  <path
     style="color:#000000;fill:#000000;-inkscape-stroke:none"
     d="m 16.076172,13.792969 a 1.25,1.25 0 0 0 -0.759766,0.582031 1.25,1.25 0 0 0 0.458985,1.707031 l 31.199218,18 A 1.25,1.25 0 0 0 48.683594,33.625 1.25,1.25 0 0 0 48.224609,31.917969 l -31.199218,-18 a 1.25,1.25 0 0 0 -0.949219,-0.125 z"
     id="line1753" />
  <path
     style="color:#000000;fill:#000000;-inkscape-stroke:none"
     d="m 47.923828,13.792969 a 1.25,1.25 0 0 0 -0.949219,0.125 l -31.199218,18 a 1.25,1.25 0 0 0 -0.458985,1.707031 1.25,1.25 0 0 0 1.708985,0.457031 l 31.199218,-18 A 1.25,1.25 0 0 0 48.683594,14.375 1.25,1.25 0 0 0 47.923828,13.792969 Z"
     id="line1755" />
  <!-- Snowflake branches top -->
  <path
     style="color:#000000;fill:#000000;-inkscape-stroke:none"
     d="m 28,4.75 a 1.25,1.25 0 0 0 -0.884766,0.3652344 1.25,1.25 0 0 0 0,1.7695312 l 4,4.0000004 a 1.25,1.25 0 0 0 1.769532,0 1.25,1.25 0 0 0 0,-1.7695316 l -4,-4 A 1.25,1.25 0 0 0 28,4.75 Z"
     id="line1757" />
  <path
     style="color:#000000;fill:#000000;-inkscape-stroke:none"
     d="m 36,4.75 a 1.25,1.25 0 0 0 -0.884766,0.3652344 l -4,4 a 1.25,1.25 0 0 0 0,1.7695316 1.25,1.25 0 0 0 1.769532,0 l 4,-4.0000004 a 1.25,1.25 0 0 0 0,-1.7695312 A 1.25,1.25 0 0 0 36,4.75 Z"
     id="line1759" />
  <!-- Snowflake branches bottom -->
  <path
     style="color:#000000;fill:#000000;-inkscape-stroke:none"
     d="m 32,36.75 a 1.25,1.25 0 0 0 -0.884766,0.365234 l -4,4 a 1.25,1.25 0 0 0 0,1.769532 1.25,1.25 0 0 0 1.769532,0 l 4,-4 a 1.25,1.25 0 0 0 0,-1.769532 A 1.25,1.25 0 0 0 32,36.75 Z"
     id="line1761" />
  <path
     style="color:#000000;fill:#000000;-inkscape-stroke:none"
     d="m 32,36.75 a 1.25,1.25 0 0 0 -0.884766,0.365234 1.25,1.25 0 0 0 0,1.769532 l 4,4 a 1.25,1.25 0 0 0 1.769532,0 1.25,1.25 0 0 0 0,-1.769532 l -4,-4 A 1.25,1.25 0 0 0 32,36.75 Z"
     id="line1763" />
  <!-- Snowflake branches left-top -->
  <path
     style="color:#000000;fill:#000000;-inkscape-stroke:none"
     d="m 16.392578,11.408203 a 1.25,1.25 0 0 0 -0.484375,1.699219 l 2.5,4.5 a 1.25,1.25 0 0 0 1.699219,0.484375 1.25,1.25 0 0 0 0.484375,-1.699219 l -2.5,-4.5 a 1.25,1.25 0 0 0 -1.699219,-0.484375 z"
     id="line1765" />
  <path
     style="color:#000000;fill:#000000;-inkscape-stroke:none"
     d="m 19.228516,15.779297 -4.5,1 a 1.25,1.25 0 0 0 -0.949219,1.492187 1.25,1.25 0 0 0 1.492187,0.949219 l 4.5,-1 a 1.25,1.25 0 0 0 0.949219,-1.492187 1.25,1.25 0 0 0 -1.492187,-0.949219 z"
     id="line1767" />
  <!-- Snowflake branches right-bottom -->
  <path
     style="color:#000000;fill:#000000;-inkscape-stroke:none"
     d="m 43.892578,29.908203 a 1.25,1.25 0 0 0 -0.484375,1.699219 l 2.5,4.5 a 1.25,1.25 0 0 0 1.699219,0.484375 1.25,1.25 0 0 0 0.484375,-1.699219 l -2.5,-4.5 a 1.25,1.25 0 0 0 -1.699219,-0.484375 z"
     id="line1769" />
  <path
     style="color:#000000;fill:#000000;-inkscape-stroke:none"
     d="m 48.728516,28.779297 -4.5,1 a 1.25,1.25 0 0 0 -0.949219,1.492187 1.25,1.25 0 0 0 1.492187,0.949219 l 4.5,-1 a 1.25,1.25 0 0 0 0.949219,-1.492187 1.25,1.25 0 0 0 -1.492187,-0.949219 z"
     id="line1771" />
  <!-- Snowflake branches right-top -->
  <path
     style="color:#000000;fill:#000000;-inkscape-stroke:none"
     d="m 47.607422,11.408203 a 1.25,1.25 0 0 0 -1.699219,0.484375 l -2.5,4.5 a 1.25,1.25 0 0 0 0.484375,1.699219 1.25,1.25 0 0 0 1.699219,-0.484375 l 2.5,-4.5 a 1.25,1.25 0 0 0 -0.484375,-1.699219 z"
     id="line1773" />
  <path
     style="color:#000000;fill:#000000;-inkscape-stroke:none"
     d="m 44.771484,15.779297 a 1.25,1.25 0 0 0 -1.492187,0.949219 1.25,1.25 0 0 0 0.949219,1.492187 l 4.5,1 a 1.25,1.25 0 0 0 1.492187,-0.949219 1.25,1.25 0 0 0 -0.949219,-1.492187 z"
     id="line1775" />
  <!-- Snowflake branches left-bottom -->
  <path
     style="color:#000000;fill:#000000;-inkscape-stroke:none"
     d="m 20.107422,29.908203 a 1.25,1.25 0 0 0 -1.699219,0.484375 l -2.5,4.5 a 1.25,1.25 0 0 0 0.484375,1.699219 1.25,1.25 0 0 0 1.699219,-0.484375 l 2.5,-4.5 a 1.25,1.25 0 0 0 -0.484375,-1.699219 z"
     id="line1777" />
  <path
     style="color:#000000;fill:#000000;-inkscape-stroke:none"
     d="m 15.271484,28.779297 a 1.25,1.25 0 0 0 -1.492187,0.949219 1.25,1.25 0 0 0 0.949219,1.492187 l 4.5,1 a 1.25,1.25 0 0 0 1.492187,-0.949219 1.25,1.25 0 0 0 -0.949219,-1.492187 z"
     id="line1779" />
  <!-- Water drops (melting/defrost) -->
  <path
     style="color:#000000;fill:#000000;-inkscape-stroke:none"
     d="m 25.857422,45.396484 a 1.250125,1.250125 0 0 0 -1.072266,0.636719 c -1.393283,2.470408 -2.505033,4.44408 -2.751953,6.376953 -0.12346,0.966437 0.02542,1.987636 0.59375,2.824219 0.56833,0.836583 1.459313,1.416908 2.574219,1.837891 a 1.250125,1.250125 0 0 0 0.80664,0.02734 c 1.25556,-0.382535 2.246951,-1.000241 2.867188,-1.886718 0.620237,-0.886478 0.790352,-1.960773 0.685547,-2.978516 -0.20961,-2.035486 -1.331889,-4.080541 -2.613281,-6.228516 a 1.250125,1.250125 0 0 0 -1.089844,-0.609375 z m 0.107422,4.085938 c 0.57955,1.1738 1.031496,2.251546 1.109375,3.007812 0.06236,0.605619 -0.02841,0.975139 -0.248047,1.289063 -0.16311,0.233126 -0.647556,0.465043 -1.148438,0.689453 -0.413105,-0.220821 -0.853271,-0.448562 -0.982422,-0.638672 -0.182828,-0.269124 -0.252197,-0.551204 -0.18164,-1.103516 0.08373,-0.655429 0.882946,-2.075564 1.451172,-3.24414 z"
     id="path1781" />
  <path
     style="color:#000000;fill:#000000;-inkscape-stroke:none"
     d="m 40.476562,45.361328 a 1.250125,1.250125 0 0 0 -1.072265,0.634766 c -1.393284,2.470407 -2.505033,4.444079 -2.751953,6.376953 -0.12346,0.966437 0.02737,1.987636 0.595703,2.824219 0.56833,0.836583 1.459313,1.418861 2.574219,1.839843 a 1.250125,1.250125 0 0 0 0.804687,0.02539 c 1.25556,-0.382535 2.246951,-1.000241 2.867188,-1.886719 0.620236,-0.886477 0.790351,-1.960772 0.685546,-2.978515 -0.209609,-2.035486 -1.331889,-4.078588 -2.613281,-6.226563 a 1.250125,1.250125 0 0 0 -1.089844,-0.609375 z m 0.109375,4.085938 c 0.578987,1.172953 1.029589,2.251987 1.107422,3.007812 0.06237,0.605619 -0.02645,0.973185 -0.246093,1.287109 -0.162868,0.232781 -0.648959,0.465307 -1.148438,0.689454 -0.413869,-0.221043 -0.853144,-0.448375 -0.982422,-0.638672 -0.182828,-0.269124 -0.25415,-0.551205 -0.183594,-1.103516 0.08372,-0.655355 0.88501,-2.073793 1.453125,-3.242187 z"
     id="path1781-5" />
</svg>
