<?xml version="1.0" encoding="UTF-8" standalone="no"?>
<svg
   viewBox="0 0 64 64"
   fill="none"
   stroke="currentColor"
   stroke-width="2.5"
   stroke-linecap="round"
   stroke-linejoin="round"
   version="1.1"
   id="svg8"
   sodipodi:docname="error_code.svg"
   inkscape:version="1.1.1 (3bf5ae0d25, 2021-09-20)"
   xmlns:inkscape="http://www.inkscape.org/namespaces/inkscape"
   xmlns:sodipodi="http://sodipodi.sourceforge.net/DTD/sodipodi-0.dtd"
   xmlns="http://www.w3.org/2000/svg"
   xmlns:svg="http://www.w3.org/2000/svg">
  <defs
     id="defs12" />
  <sodipodi:namedview
     id="namedview10"
     pagecolor="#505050"
     bordercolor="#ffffff"
     borderopacity="1"
     inkscape:pageshadow="0"
     inkscape:pageopacity="0"
     inkscape:pagecheckerboard="1"
     showgrid="false"
     inkscape:zoom="10.34375"
     inkscape:cx="31.951662"
     inkscape:cy="32"
     inkscape:window-width="1440"
     inkscape:window-height="890"
     inkscape:window-x="-6"
     inkscape:window-y="-6"
     inkscape:window-maximized="1"
     inkscape:current-layer="svg8" />
  <!-- Warning triangle -->
  <path
     style="color:#000000;fill:#000000;-inkscape-stroke:none"
     d="M 32,6.75 A 1.250125,1.250125 0 0 0 30.912109,7.3847656 L 4.9121094,53.384766 A 1.250125,1.250125 0 0 0 6,55.25 h 52 a 1.250125,1.250125 0 0 0 1.087891,-1.865234 l -26,-46.0000004 A 1.250125,1.250125 0 0 0 32,6.75 Z M 32,10.539063 55.857422,52.75 H 8.1425781 Z"
     id="path2" />
  <!-- Exclamation mark -->
  <path
     style="color:#000000;fill:#000000;-inkscape-stroke:none"
     d="M 32,20.75 A 1.25,1.25 0 0 0 30.75,22 V 38 A 1.25,1.25 0 0 0 32,39.25 1.25,1.25 0 0 0 33.25,38 V 22 A 1.25,1.25 0 0 0 32,20.75 Z"
     id="line4" />
  <g
     id="circle6">
    <path
       style="color:#000000;fill:currentColor;stroke-width:2.5;-inkscape-stroke:none"
       d="m 34,46 a 2,2 0 0 1 -2,2 2,2 0 0 1 -2,-2 2,2 0 0 1 2,-2 2,2 0 0 1 2,2 z"
       id="path16" />
    <path
       style="color:#000000;fill:#000000;-inkscape-stroke:none"
       d="m 32,42.75 c -1.780118,0 -3.25,1.469882 -3.25,3.25 0,1.780118 1.469882,3.25 3.25,3.25 1.780118,0 3.25,-1.469882 3.25,-3.25 0,-1.780118 -1.469882,-3.25 -3.25,-3.25 z m 0,2.5 c 0.429019,0 0.75,0.320981 0.75,0.75 0,0.429019 -0.320981,0.75 -0.75,0.75 -0.429019,0 -0.75,-0.320981 -0.75,-0.75 0,-0.429019 0.320981,-0.75 0.75,-0.75 z"
       id="path18" />
  </g>
</svg>
