<?xml version="1.0" encoding="UTF-8" standalone="no"?>
<svg
   width="99"
   height="99"
   viewBox="0 0 99 99"
   fill="none"
   version="1.1"
   id="svg21"
   sodipodi:docname="icon.svg"
   inkscape:version="1.1.1 (3bf5ae0d25, 2021-09-20)"
   xmlns:inkscape="http://www.inkscape.org/namespaces/inkscape"
   xmlns:sodipodi="http://sodipodi.sourceforge.net/DTD/sodipodi-0.dtd"
   xmlns="http://www.w3.org/2000/svg"
   xmlns:svg="http://www.w3.org/2000/svg">
  <sodipodi:namedview
     id="namedview23"
     pagecolor="#505050"
     bordercolor="#ffffff"
     borderopacity="1"
     inkscape:pageshadow="0"
     inkscape:pageopacity="0"
     inkscape:pagecheckerboard="1"
     showgrid="false"
     width="99px"
     inkscape:zoom="2"
     inkscape:cx="203.25"
     inkscape:cy="86"
     inkscape:window-width="1440"
     inkscape:window-height="890"
     inkscape:window-x="-6"
     inkscape:window-y="-6"
     inkscape:window-maximized="1"
     inkscape:current-layer="g14" />
  <g
     clip-path="url(#clip0_415_130964)"
     id="g14">
    <path
       style="fill:#000000;stroke-width:0.248913"
       d="M 47.479344,98.000506 C 34.433634,97.330405 21.764249,90.961895 13.202524,80.770604 8.4108986,75.06698 4.9299662,68.273295 3.1733132,61.196739 1.9987321,56.465019 1.8082551,54.747907 1.8203434,49 1.8296403,44.578946 1.9263564,43.143009 2.3765405,40.742101 4.2299428,30.857597 8.6304429,22.26882 15.462812,15.20067 22.804783,7.6053352 31.966018,2.8070808 42.72053,0.92427516 47.142776,0.15006848 54.262329,0.15280154 58.555974,0.93034864 69.628204,2.9354652 78.324748,7.5417031 85.967603,15.449275 101.61566,31.639318 103.99314,57.111561 91.608206,75.882601 84.462739,86.712524 74.070204,93.979097 61.542931,96.904565 c -1.369022,0.319706 -3.049185,0.663945 -3.733696,0.764979 -2.2746,0.335729 -7.178316,0.492838 -10.329891,0.330955 z m 8.139153,-8.064844 c 9.760328,-1.275593 18.073028,-5.477479 24.749282,-12.510216 5.224909,-5.503898 8.929125,-12.579338 10.39477,-19.855094 0.704897,-3.499254 1.125448,-8.421694 0.844896,-9.889307 L 91.478918,47.008696 H 77.070978 62.663039 v 1.866847 1.866848 h 12.599108 12.599104 l -0.165164,1.680163 C 86.803739,61.500172 83.016194,69.524576 76.676231,75.769537 69.654638,82.685922 60.570495,86.38148 50.590757,86.38148 40.201151,86.38148 31.044151,82.483519 23.823129,74.98701 18.4425,69.401107 15.417099,63.448063 13.842007,55.347283 13.279426,52.453897 13.406538,45.215977 14.076767,41.979948 17.272631,26.54949 29.439543,14.872909 44.865757,12.431767 c 0.958315,-0.151651 3.030516,-0.329541 4.604891,-0.395312 l 2.8625,-0.119582 0.0727,-1.869308 0.0727,-1.8693041 -2.064005,0.00199 C 42.975208,8.18762 34.904538,10.551512 28.589034,14.572942 20.822243,19.518488 14.446388,27.704859 11.616261,36.365378 10.107893,40.981162 9.7942441,43.140497 9.7810597,48.99995 c -0.015186,6.749539 0.4906243,9.694071 2.6082553,15.183696 6.673302,17.299474 24.886473,28.149203 43.229182,25.751966 z m 6.992783,-21.597667 0.0727,-1.914082 H 57.57079 52.457604 V 47.257609 28.091304 h -1.950152 -1.950149 l -0.0079,20.970924 c -0.0043,11.534008 0.03383,21.045319 0.08479,21.13625 0.05096,0.09093 3.200297,0.140185 6.998513,0.109462 l 6.905849,-0.05586 0.0727,-1.914081 z M 37.957574,38.826742 c 1.926188,-0.982666 3.050031,-2.860571 3.050031,-5.096502 0,-2.266709 -0.948105,-3.907902 -2.927793,-5.068076 -0.939905,-0.550822 -1.45295,-0.673352 -2.819348,-0.673352 -1.419404,0 -1.850751,0.111525 -2.87106,0.742336 -1.641632,1.014943 -2.645299,2.67527 -2.785041,4.607181 -0.327049,4.521421 4.29539,7.558561 8.353211,5.488413 z"
       id="path10110"
       sodipodi:nodetypes="ssssssscsssssscssscccccccssssscssccccsssscccccccccccsscccsssssss" />
  </g>
  <defs
     id="defs19">
    <clipPath
       id="clip0_415_130964">
      <rect
         width="223"
         height="99"
         fill="#ffffff"
         id="rect16"
         x="0"
         y="0" />
    </clipPath>
  </defs>
</svg>
