<?xml version="1.0" encoding="UTF-8" standalone="no"?>
<svg
   viewBox="0 0 64 64"
   fill="none"
   stroke="currentColor"
   stroke-width="2.5"
   stroke-linecap="round"
   stroke-linejoin="round"
   version="1.1"
   id="svg346"
   sodipodi:docname="outdoor_unit.svg"
   inkscape:version="1.1.1 (3bf5ae0d25, 2021-09-20)"
   xmlns:inkscape="http://www.inkscape.org/namespaces/inkscape"
   xmlns:sodipodi="http://sodipodi.sourceforge.net/DTD/sodipodi-0.dtd"
   xmlns="http://www.w3.org/2000/svg"
   xmlns:svg="http://www.w3.org/2000/svg">
  <defs
     id="defs350" />
  <sodipodi:namedview
     id="namedview348"
     pagecolor="#505050"
     bordercolor="#ffffff"
     borderopacity="1"
     inkscape:pageshadow="0"
     inkscape:pageopacity="0"
     inkscape:pagecheckerboard="1"
     showgrid="false"
     inkscape:zoom="11.086461"
     inkscape:cx="37.838945"
     inkscape:cy="40.048847"
     inkscape:window-width="1440"
     inkscape:window-height="890"
     inkscape:window-x="-6"
     inkscape:window-y="-6"
     inkscape:window-maximized="1"
     inkscape:current-layer="svg346" />
  <!-- Housing -->
  <path
     style="color:#000000;fill:#000000;-inkscape-stroke:none"
     d="M 11,8.75 C 8.6671239,8.75 6.75,10.667124 6.75,13 v 38 c 0,2.332876 1.9171239,4.25 4.25,4.25 h 42 c 2.332876,0 4.25,-1.917124 4.25,-4.25 V 13 C 57.25,10.667124 55.332876,8.75 53,8.75 Z m 0,1.1465257 h 42 c 0.991121,0 2.910121,2.1123533 2.910121,3.1034743 v 38 c 0,0.991121 -1.822323,2.813444 -2.813444,2.813444 h -42 C 10.105556,53.813444 8.0898792,51.991121 8.0898792,51 V 13 C 8.0898792,12.008879 10.008879,9.8965257 11,9.8965257 Z"
     id="rect316"
     sodipodi:nodetypes="ssssssssssssssssss" />
  <!-- Grill lines -->
  <path
     style="color:#000000;fill:#000000;-inkscape-stroke:none"
     d="m 14,14.501969 c -0.690356,0 -1.25,-0.192325 -1.25,0.498031 0,0.690356 0.559644,0.566392 1.25,0.566392 h 36 c 0.690356,0 1.25,0.123964 1.25,-0.566392 0,-0.690356 -0.559644,-0.498031 -1.25,-0.498031 z"
     id="line318"
     sodipodi:nodetypes="sssssss" />
  <path
     style="color:#000000;fill:#000000;-inkscape-stroke:none"
     d="m 14,18.501969 c -0.690356,0 -1.25,-0.192325 -1.25,0.498031 0,0.690356 0.559644,0.634753 1.25,0.634753 h 36 c 0.690356,0 1.25,0.0556 1.25,-0.634753 0,-0.690356 -0.559644,-0.498031 -1.25,-0.498031 z"
     id="line320"
     sodipodi:nodetypes="sssssss" />
  <!-- Fan circle -->
  <path
     style="color:#000000;fill:#000000;-inkscape-stroke:none"
     d="m 32,21.75 c -7.855244,0 -14.25,6.394756 -14.25,14.25 0,7.855244 6.394756,14.25 14.25,14.25 7.855244,0 14.25,-6.394756 14.25,-14.25 0,-7.855244 -6.394756,-14.25 -14.25,-14.25 z m 0.06836,1.201145 c 6.504145,0 12.980494,6.681432 12.980494,13.185577 0,6.504145 -6.57889,12.877952 -13.083035,12.877952 -6.504145,0 -13.117216,-6.544709 -13.117216,-13.048854 0,-6.504145 6.715612,-13.014675 13.219757,-13.014675 z"
     id="circle322"
     sodipodi:nodetypes="ssssssssss" />
  <!-- Fan blades (3 blades with curved tips) -->
  <path
     style="color:#000000;fill:#000000;-inkscape-stroke:none"
     d="m 32,22.75 c -0.690356,0 -0.463851,0.696366 -0.463851,1.386722 v 12 C 31.536149,36.827077 31.309644,37.25 32,37.25 c 0.690356,0 0.498031,-0.422923 0.498031,-1.113278 v -12 C 32.498031,23.446366 32.690356,22.75 32,22.75 Z"
     id="line324"
     sodipodi:nodetypes="sssssss" />
  <path
     style="color:#000000;fill:#000000;-inkscape-stroke:none"
     d="m 31.785165,35.772479 -10.400391,6 c -0.597384,0.345335 -1.212117,0.254898 -0.867196,0.852521 0.345336,0.597384 0.733424,0.220886 1.331047,-0.124036 l 10.400391,-6 c 0.597383,-0.345335 1.177936,-0.528341 0.833015,-1.125964 -0.345336,-0.597384 -0.699243,0.05256 -1.296866,0.397479 z"
     id="line326"
     sodipodi:nodetypes="ccccccc" />
  <path
     style="color:#000000;fill:#000000;-inkscape-stroke:none"
     d="m 31.675781,34.792969 c -0.319715,0.086 -0.592255,0.295318 -0.757812,0.582031 -0.344921,0.597623 0.201451,0.712268 0.798835,1.057604 l 10.400391,6 c 0.597623,0.344921 1.019891,0.78978 1.365227,0.192396 0.344921,-0.597623 -0.303992,-0.678088 -0.901376,-1.023423 l -10.400391,-6 c -0.287278,-0.16599 -0.184417,-0.894567 -0.504874,-0.808608 z"
     id="line328"
     sodipodi:nodetypes="cccccccc" />
  <path
     style="color:#000000;fill:#000000;-inkscape-stroke:none"
     d="m 32.535156,22.871094 c -0.623498,-0.295158 -0.547905,0.07311 -0.843733,0.696291 -0.295158,0.623498 1.098523,1.231513 1.721703,1.527341 2.023484,0.959084 2.311897,1.562014 2.439443,2.153314 0.127547,0.591299 0.328881,1.916697 -1.000965,3.217782 -0.493465,0.482724 -2.484671,1.171528 -2.001993,1.665037 0.482724,0.493465 1.274069,0.502208 1.767578,0.01953 1.603687,-1.569003 2.427152,-2.805653 2.038083,-4.609366 -0.38907,-1.803713 -1.790129,-3.565573 -4.120114,-4.669931 z"
     id="path330"
     sodipodi:nodetypes="sccscccsss" />
  <path
     style="color:#000000;fill:#000000;-inkscape-stroke:none"
     d="m 23.974609,35.568359 c -0.506315,0.02163 -0.998325,0.14247 -1.447265,0.386719 -0.897881,0.488499 -1.473744,1.382146 -1.791016,2.40625 -0.317272,1.024105 -0.425778,2.230865 -0.386719,3.671875 0.01809,0.691248 0.593953,1.236482 1.285157,1.216797 0.689692,-0.01915 -0.817387,-1.140381 -0.83598,-1.830089 -0.03435,-1.267446 0.389093,-2.207048 0.583014,-2.833008 0.193925,-0.62596 1.340086,-1.603016 1.520527,-1.701186 0.180441,-0.09817 1.667955,-0.363642 2.276391,-0.183603 0.608437,0.180043 1.458816,0.616121 2.466797,1.341797 0.559912,0.403105 0.725293,0.925779 1.128894,0.366225 0.03016,-4.93e-4 0.515614,-0.520211 -0.04394,-0.923812 -1.152138,-0.829458 -2.199224,-1.411202 -3.21875,-1.712891 -0.509763,-0.150844 -1.030794,-0.226711 -1.53711,-0.205078 z"
     id="path332"
     sodipodi:nodetypes="ssscccssssccsss" />
  <path
     style="color:#000000;fill:#000000;-inkscape-stroke:none"
     d="m 36.035156,37.904297 c -0.67587,-0.143337 -1.339842,0.288813 -1.482422,0.964844 -0.517937,2.456605 0.496508,4.654298 2.353516,5.433593 1.857008,0.779296 4.164406,0.271928 6.248047,-1.30664 0.549731,-0.416603 0.247949,-0.447788 -0.167978,-0.998031 -0.416729,-0.550976 -0.996294,0.605229 -1.54687,1.022486 -1.573153,1.191822 -3.387421,0.902111 -4.145516,0.583976 -0.758095,-0.318136 -2.218384,-2.207677 -1.866231,-3.877955 0.142117,-0.675204 1.282554,-1.679662 0.607454,-1.822273 z"
     id="path334"
     sodipodi:nodetypes="ccscccscc" />
  <!-- Center hub -->
  <g
     id="circle336">
    <path
       style="color:#000000;fill:currentColor;stroke-width:2.5;-inkscape-stroke:none"
       d="m 34.5,36 c 0,1.380712 -1.119288,2.5 -2.5,2.5 -1.380712,0 -2.5,-1.119288 -2.5,-2.5 0,-1.380712 1.119288,-2.5 2.5,-2.5 1.380712,0 2.5,1.119288 2.5,2.5 z"
       id="path35985" />
    <path
       style="color:#000000;fill:#000000;-inkscape-stroke:none"
       d="m 32,32.25 c -2.05626,0 -3.75,1.69374 -3.75,3.75 0,2.05626 1.69374,3.75 3.75,3.75 2.05626,0 3.75,-1.69374 3.75,-3.75 0,-2.05626 -1.69374,-3.75 -3.75,-3.75 z m 0,2.5 c 0.705161,0 1.25,0.544839 1.25,1.25 0,0.705161 -0.544839,1.25 -1.25,1.25 -0.705161,0 -1.25,-0.544839 -1.25,-1.25 0,-0.705161 0.544839,-1.25 1.25,-1.25 z"
       id="path35987" />
  </g>
  <!-- Feet -->
  <path
     style="color:#000000;fill:#000000;-inkscape-stroke:none"
     d="m 14.03418,53.980494 c -0.690356,0 -0.664317,-0.05559 -0.668933,0.634753 l -0.03418,5.11131 c -0.0046,0.69034 -0.02142,0.839835 0.668933,0.839835 0.690356,0 0.630137,-0.183675 0.634753,-0.874016 l 0.03418,-5.111309 c 0.0046,-0.690341 0.0556,-0.600573 -0.634753,-0.600573 z"
     id="line338"
     sodipodi:nodetypes="sssssss" />
  <path
     style="color:#000000;fill:#000000;-inkscape-stroke:none"
     d="m 49.96582,53.946314 c -0.690356,0 -0.737295,-0.260686 -0.737295,0.42967 v 6 c 0,0.690356 0.08112,0.32713 0.771475,0.32713 0.690356,0 0.634753,0.294863 0.634753,-0.395491 v -6 c 0,-0.690356 0.02142,-0.361313 -0.668933,-0.361313 z"
     id="line340"
     sodipodi:nodetypes="ssssssss" />
  <path
     style="color:#000000;fill:#000000;-inkscape-stroke:none"
     d="m 10,59.399427 c -0.6903559,0 -1.25,-0.08978 -1.25,0.600573 0,0.690356 0.5596441,0.600573 1.25,0.600573 h 8 c 0.690356,0 1.25,0.08978 1.25,-0.600573 0,-0.690356 -0.559644,-0.600573 -1.25,-0.600573 z"
     id="line342"
     sodipodi:nodetypes="sssssss" />
  <path
     style="color:#000000;fill:#000000;-inkscape-stroke:none"
     d="m 46,59.536149 c -0.690356,0 -1.25,-0.08978 -1.25,0.600573 0,0.690356 0.559644,0.668933 1.25,0.668933 h 8 c 0.690356,0 1.25,0.02142 1.25,-0.668933 0,-0.690356 -0.559644,-0.600573 -1.25,-0.600573 z"
     id="line344"
     sodipodi:nodetypes="sssssss" />
</svg>
