<?xml version="1.0" encoding="UTF-8" standalone="no"?>
<svg
   viewBox="0 0 64 64"
   fill="none"
   stroke="currentColor"
   stroke-width="2.5"
   stroke-linecap="round"
   stroke-linejoin="round"
   version="1.1"
   id="svg346"
   sodipodi:docname="outdoor_unit.svg"
   inkscape:version="1.1.1 (3bf5ae0d25, 2021-09-20)"
   xmlns:inkscape="http://www.inkscape.org/namespaces/inkscape"
   xmlns:sodipodi="http://sodipodi.sourceforge.net/DTD/sodipodi-0.dtd"
   xmlns="http://www.w3.org/2000/svg"
   xmlns:svg="http://www.w3.org/2000/svg">
  <defs
     id="defs350" />
  <sodipodi:namedview
     id="namedview348"
     pagecolor="#505050"
     bordercolor="#ffffff"
     borderopacity="1"
     inkscape:pageshadow="0"
     inkscape:pageopacity="0"
     inkscape:pagecheckerboard="1"
     showgrid="false"
     inkscape:zoom="10.34375"
     inkscape:cx="31.951662"
     inkscape:cy="18.07855"
     inkscape:window-width="1440"
     inkscape:window-height="890"
     inkscape:window-x="-6"
     inkscape:window-y="-6"
     inkscape:window-maximized="1"
     inkscape:current-layer="svg346" />
  <!-- Housing -->
  <path
     style="color:#000000;fill:#000000;-inkscape-stroke:none"
     d="M 11,8.75 C 8.6671239,8.75 6.75,10.667124 6.75,13 v 38 c 0,2.332876 1.9171239,4.25 4.25,4.25 h 42 c 2.332876,0 4.25,-1.917124 4.25,-4.25 V 13 C 57.25,10.667124 55.332876,8.75 53,8.75 Z m 0,2.5 h 42 c 0.991121,0 1.75,0.758879 1.75,1.75 v 38 c 0,0.991121 -0.758879,1.75 -1.75,1.75 H 11 C 10.008879,52.75 9.25,51.991121 9.25,51 V 13 c 0,-0.991121 0.758879,-1.75 1.75,-1.75 z"
     id="rect316" />
  <!-- Grill lines -->
  <path
     style="color:#000000;fill:#000000;-inkscape-stroke:none"
     d="M 14,13.75 A 1.25,1.25 0 0 0 12.75,15 1.25,1.25 0 0 0 14,16.25 H 50 A 1.25,1.25 0 0 0 51.25,15 1.25,1.25 0 0 0 50,13.75 Z"
     id="line318" />
  <path
     style="color:#000000;fill:#000000;-inkscape-stroke:none"
     d="M 14,17.75 A 1.25,1.25 0 0 0 12.75,19 1.25,1.25 0 0 0 14,20.25 H 50 A 1.25,1.25 0 0 0 51.25,19 1.25,1.25 0 0 0 50,17.75 Z"
     id="line320" />
  <!-- Fan circle -->
  <path
     style="color:#000000;fill:#000000;-inkscape-stroke:none"
     d="m 32,21.75 c -7.855244,0 -14.25,6.394756 -14.25,14.25 0,7.855244 6.394756,14.25 14.25,14.25 7.855244,0 14.25,-6.394756 14.25,-14.25 0,-7.855244 -6.394756,-14.25 -14.25,-14.25 z m 0,2.5 c 6.504145,0 11.75,5.245855 11.75,11.75 0,6.504145 -5.245855,11.75 -11.75,11.75 -6.504145,0 -11.75,-5.245855 -11.75,-11.75 0,-6.504145 5.245855,-11.75 11.75,-11.75 z"
     id="circle322" />
  <!-- Fan blades (3 blades with curved tips) -->
  <path
     style="color:#000000;fill:#000000;-inkscape-stroke:none"
     d="M 32,22.75 A 1.25,1.25 0 0 0 30.75,24 V 36 A 1.25,1.25 0 0 0 32,37.25 1.25,1.25 0 0 0 33.25,36 V 24 A 1.25,1.25 0 0 0 32,22.75 Z"
     id="line324" />
  <path
     style="color:#000000;fill:#000000;-inkscape-stroke:none"
     d="m 31.375,34.917969 -10.400391,6 a 1.25,1.25 0 0 0 -0.457031,1.707031 1.25,1.25 0 0 0 1.707031,0.457031 l 10.400391,-6 A 1.25,1.25 0 0 0 33.082031,35.375 1.25,1.25 0 0 0 31.375,34.917969 Z"
     id="line326" />
  <path
     style="color:#000000;fill:#000000;-inkscape-stroke:none"
     d="M 31.675781,34.792969 A 1.25,1.25 0 0 0 30.917969,35.375 1.25,1.25 0 0 0 31.375,37.082031 l 10.400391,6 A 1.25,1.25 0 0 0 43.482422,42.625 1.25,1.25 0 0 0 43.025391,40.917969 l -10.400391,-6 a 1.25,1.25 0 0 0 -0.949219,-0.125 z"
     id="line328" />
  <path
     style="color:#000000;fill:#000000;-inkscape-stroke:none"
     d="m 32.535156,22.871094 a 1.25,1.25 0 0 0 -1.664062,0.59375 1.25,1.25 0 0 0 0.59375,1.664062 c 2.023484,0.959084 2.790422,1.869638 2.917968,2.460938 0.127547,0.591299 -0.183825,1.472352 -1.513671,2.773437 a 1.25,1.25 0 0 0 -0.01953,1.767578 1.25,1.25 0 0 0 1.767578,0.01953 c 1.603687,-1.569003 2.598054,-3.284178 2.208985,-5.087891 -0.38907,-1.803713 -1.961031,-3.087048 -4.291016,-4.191406 z"
     id="path330" />
  <path
     style="color:#000000;fill:#000000;-inkscape-stroke:none"
     d="m 23.974609,35.568359 c -0.506315,0.02163 -0.998325,0.14247 -1.447265,0.386719 -0.897881,0.488499 -1.473744,1.382146 -1.791016,2.40625 -0.317272,1.024105 -0.425778,2.230865 -0.386719,3.671875 A 1.25,1.25 0 0 0 21.634766,43.25 1.25,1.25 0 0 0 22.849609,41.966797 c -0.03435,-1.267446 0.08147,-2.241228 0.275391,-2.867188 0.193925,-0.62596 0.417215,-0.851048 0.597656,-0.949218 0.180441,-0.09817 0.471642,-0.158559 1.080078,0.02148 0.608437,0.180043 1.458816,0.616121 2.466797,1.341797 a 1.25,1.25 0 0 0 1.744141,-0.283203 1.25,1.25 0 0 0 -0.283203,-1.744141 c -1.152138,-0.829458 -2.199224,-1.411202 -3.21875,-1.712891 -0.509763,-0.150844 -1.030794,-0.226711 -1.53711,-0.205078 z"
     id="path332" />
  <path
     style="color:#000000;fill:#000000;-inkscape-stroke:none"
     d="m 36.035156,37.904297 a 1.25,1.25 0 0 0 -1.482422,0.964844 c -0.517937,2.456605 0.496508,4.654298 2.353516,5.433593 1.857008,0.779296 4.164406,0.271928 6.248047,-1.30664 a 1.25,1.25 0 0 0 0.242187,-1.75 1.25,1.25 0 0 0 -1.751953,-0.242188 C 40.071378,42.195728 38.633095,42.316182 37.875,41.998047 37.116905,41.679911 36.647847,41.055044 37,39.384766 a 1.25,1.25 0 0 0 -0.964844,-1.480469 z"
     id="path334" />
  <!-- Center hub -->
  <g
     id="circle336">
    <path
       style="color:#000000;fill:currentColor;stroke-width:2.5;-inkscape-stroke:none"
       d="m 34.5,36 c 0,1.380712 -1.119288,2.5 -2.5,2.5 -1.380712,0 -2.5,-1.119288 -2.5,-2.5 0,-1.380712 1.119288,-2.5 2.5,-2.5 1.380712,0 2.5,1.119288 2.5,2.5 z"
       id="path35985" />
    <path
       style="color:#000000;fill:#000000;-inkscape-stroke:none"
       d="m 32,32.25 c -2.05626,0 -3.75,1.69374 -3.75,3.75 0,2.05626 1.69374,3.75 3.75,3.75 2.05626,0 3.75,-1.69374 3.75,-3.75 0,-2.05626 -1.69374,-3.75 -3.75,-3.75 z m 0,2.5 c 0.705161,0 1.25,0.544839 1.25,1.25 0,0.705161 -0.544839,1.25 -1.25,1.25 -0.705161,0 -1.25,-0.544839 -1.25,-1.25 0,-0.705161 0.544839,-1.25 1.25,-1.25 z"
       id="path35987" />
  </g>
  <!-- Feet -->
  <path
     style="color:#000000;fill:#000000;-inkscape-stroke:none"
     d="M 14,52.75 A 1.25,1.25 0 0 0 12.75,54 v 6 A 1.25,1.25 0 0 0 14,61.25 1.25,1.25 0 0 0 15.25,60 V 54 A 1.25,1.25 0 0 0 14,52.75 Z"
     id="line338" />
  <path
     style="color:#000000;fill:#000000;-inkscape-stroke:none"
     d="M 50,52.75 A 1.25,1.25 0 0 0 48.75,54 v 6 A 1.25,1.25 0 0 0 50,61.25 1.25,1.25 0 0 0 51.25,60 V 54 A 1.25,1.25 0 0 0 50,52.75 Z"
     id="line340" />
  <path
     style="color:#000000;fill:#000000;-inkscape-stroke:none"
     d="M 10,58.75 A 1.25,1.25 0 0 0 8.75,60 1.25,1.25 0 0 0 10,61.25 h 8 A 1.25,1.25 0 0 0 19.25,60 1.25,1.25 0 0 0 18,58.75 Z"
     id="line342" />
  <path
     style="color:#000000;fill:#000000;-inkscape-stroke:none"
     d="M 46,58.75 A 1.25,1.25 0 0 0 44.75,60 1.25,1.25 0 0 0 46,61.25 h 8 A 1.25,1.25 0 0 0 55.25,60 1.25,1.25 0 0 0 54,58.75 Z"
     id="line344" />
</svg>
