<?xml version="1.0" encoding="UTF-8" standalone="no"?>
<svg
   viewBox="0 0 64 64"
   fill="none"
   stroke="currentColor"
   stroke-width="2.5"
   stroke-linecap="round"
   stroke-linejoin="round"
   version="1.1"
   id="svg16"
   sodipodi:docname="water_pump.svg"
   inkscape:version="1.1.1 (3bf5ae0d25, 2021-09-20)"
   xmlns:inkscape="http://www.inkscape.org/namespaces/inkscape"
   xmlns:sodipodi="http://sodipodi.sourceforge.net/DTD/sodipodi-0.dtd"
   xmlns="http://www.w3.org/2000/svg"
   xmlns:svg="http://www.w3.org/2000/svg">
  <defs
     id="defs20" />
  <sodipodi:namedview
     id="namedview18"
     pagecolor="#505050"
     bordercolor="#ffffff"
     borderopacity="1"
     inkscape:pageshadow="0"
     inkscape:pageopacity="0"
     inkscape:pagecheckerboard="1"
     showgrid="false"
     inkscape:zoom="10.34375"
     inkscape:cx="31.951662"
     inkscape:cy="32.096677"
     inkscape:window-width="1440"
     inkscape:window-height="890"
     inkscape:window-x="-6"
     inkscape:window-y="-6"
     inkscape:window-maximized="1"
     inkscape:current-layer="svg16" />
  <!-- Pump body (circle) -->
  <path
     style="color:#000000;fill:#000000;-inkscape-stroke:none"
     d="m 32,18.75 c -8.407528,0 -15.25,6.842472 -15.25,15.25 0,8.407528 6.842472,15.25 15.25,15.25 8.407528,0 15.25,-6.842472 15.25,-15.25 0,-8.407528 -6.842472,-15.25 -15.25,-15.25 z m 0,2.5 c 7.056429,0 12.75,5.693571 12.75,12.75 0,7.056429 -5.693571,12.75 -12.75,12.75 -7.056429,0 -12.75,-5.693571 -12.75,-12.75 0,-7.056429 5.693571,-12.75 12.75,-12.75 z"
     id="circle2" />
  <!-- Inline pipes -->
  <path
     style="color:#000000;fill:#000000;-inkscape-stroke:none"
     d="M 4,32.75 A 1.25,1.25 0 0 0 2.75,34 1.25,1.25 0 0 0 4,35.25 H 18 A 1.25,1.25 0 0 0 19.25,34 1.25,1.25 0 0 0 18,32.75 Z"
     id="line4" />
  <path
     style="color:#000000;fill:#000000;-inkscape-stroke:none"
     d="M 46,32.75 A 1.25,1.25 0 0 0 44.75,34 1.25,1.25 0 0 0 46,35.25 H 60 A 1.25,1.25 0 0 0 61.25,34 1.25,1.25 0 0 0 60,32.75 Z"
     id="line6" />
  <!-- Flow arrow inside -->
  <path
     style="color:#000000;fill:#000000;-inkscape-stroke:none"
     d="M 26,32.75 A 1.25,1.25 0 0 0 24.75,34 1.25,1.25 0 0 0 26,35.25 H 38 A 1.25,1.25 0 0 0 39.25,34 1.25,1.25 0 0 0 38,32.75 Z"
     id="polyline8" />
  <path
     style="color:#000000;fill:#000000;-inkscape-stroke:none"
     d="m 35,28.75 a 1.25,1.25 0 0 0 -0.884766,0.365234 1.25,1.25 0 0 0 0,1.769532 L 37.230469,34 34.115234,37.115234 a 1.25,1.25 0 0 0 0,1.769532 1.25,1.25 0 0 0 1.769532,0 l 4,-4 a 1.250125,1.250125 0 0 0 0,-1.769532 l -4,-4 A 1.25,1.25 0 0 0 35,28.75 Z"
     id="polyline10" />
  <!-- Motor block on top -->
  <path
     style="color:#000000;fill:#000000;-inkscape-stroke:none"
     d="M 26.914062,10.75 C 25.180989,10.75 23.75,12.18099 23.75,13.914063 v 3.949218 c 0,1.733073 1.43099,3.164063 3.164062,3.164063 h 10.171875 c 1.733073,0 3.164063,-1.43099 3.164063,-3.164063 V 13.914063 C 40.25,12.180989 38.819011,10.75 37.085937,10.75 Z m 0,2.257813 h 10.171875 c 0.521243,0 0.90625,0.385007 0.90625,0.90625 v 3.949218 c 0,0.521243 -0.385006,0.904297 -0.90625,0.904297 H 26.914062 c -0.521243,0 -0.906249,-0.383054 -0.90625,-0.904297 v -3.949218 c 0,-0.521244 0.385008,-0.90625 0.90625,-0.90625 z"
     id="rect12" />
</svg>
