<?xml version="1.0" encoding="UTF-8" standalone="no"?>
<!-- Created with Inkscape (http://www.inkscape.org/) -->

<svg
   width="209.67346mm"
   height="223.28862mm"
   viewBox="0 0 209.67346 223.28862"
   version="1.1"
   id="svg847"
   inkscape:version="1.1.1 (3bf5ae0d25, 2021-09-20)"
   sodipodi:docname="icon.svg"
   xmlns:inkscape="http://www.inkscape.org/namespaces/inkscape"
   xmlns:sodipodi="http://sodipodi.sourceforge.net/DTD/sodipodi-0.dtd"
   xmlns="http://www.w3.org/2000/svg"
   xmlns:svg="http://www.w3.org/2000/svg">
  <sodipodi:namedview
     id="namedview849"
     pagecolor="#505050"
     bordercolor="#ffffff"
     borderopacity="1"
     inkscape:pageshadow="0"
     inkscape:pageopacity="0"
     inkscape:pagecheckerboard="1"
     inkscape:document-units="mm"
     showgrid="false"
     inkscape:zoom="1.9720632"
     inkscape:cx="620.82644"
     inkscape:cy="185.29974"
     inkscape:window-width="1440"
     inkscape:window-height="890"
     inkscape:window-x="-6"
     inkscape:window-y="-6"
     inkscape:window-maximized="1"
     inkscape:current-layer="layer1"
     inkscape:rotation="-1" />
  <defs
     id="defs844" />
  <g
     inkscape:label="Laag 1"
     inkscape:groupmode="layer"
     id="layer1"
     transform="translate(-0.34211347,-20.395824)">
    <path
       style="fill:#000000;stroke-width:0.453839"
       d="m 93.412773,231.6624 c 4.11859,-1.8518 7.743627,-3.37241 8.055637,-3.37913 0.42418,-0.009 0.5673,-1.50354 0.5673,-5.92337 0,-5.74389 -0.0294,-5.92232 -1.03979,-6.30646 -0.57188,-0.21743 -1.308877,-0.71956 -1.637757,-1.11584 -0.51206,-0.617 -0.44417,-0.77827 0.47249,-1.12244 0.588747,-0.22106 11.907607,-4.4091 25.152997,-9.30676 l 24.08255,-8.90483 8.05391,2.23188 c 4.42965,1.22753 8.35331,2.48036 8.71924,2.78405 0.53932,0.4476 1.82339,0.0521 6.78021,-2.08839 l 6.11488,-2.64055 v -3.75731 c 0,-3.87525 -0.60054,-6.06921 -1.66128,-6.06921 -1.90139,0 0.64393,-1.02037 11.18044,-4.99223 l 14.22354,-5.36173 c 0.83556,-42.7056 0.66052,-88.846344 1.71887,-123.100791 -0.56944,-0.795495 -2.56043,-3.584517 -4.69932,-6.292823 C 183.98254,42.10199 169.74864,39.552284 153.86157,36.434861 94.527626,44.477574 76.151752,46.08587 10.144972,58.467047 9.4458249,106.22191 10.056642,153.68049 9.886288,196.62415 c 18.473565,14.19657 30.284621,22.49282 46.285473,33.1089 5.927297,-1.97988 8.288544,-2.71259 12.362259,-4.17649 3.999792,2.7859 4.201016,2.76479 8.266626,5.42442 4.06561,2.65964 4.794881,2.89531 7.846248,4.43483 2.932698,-1.09782 4.647269,-1.90162 8.765849,-3.75341 z m -7.61767,-3.48902 0.12934,-4.63604 6.80758,-2.60813 c 3.74416,-1.43446 6.96075,-2.61588 7.14795,-2.62537 0.611937,-0.031 0.394887,8.0633 -0.22691,8.46228 -1.10955,0.71195 -12.83097,5.95975 -13.40412,6.00116 -0.44748,0.0323 -0.55308,-1.03664 -0.45384,-4.5939 z m -8.25194,0.33416 c -3.25306,-2.11642 -5.91464,-3.93212 -5.91464,-4.03489 0,-0.10278 2.3598,-1.06135 5.24399,-2.13016 l 5.24399,-1.94331 0.99985,1.09944 c 0.92296,1.0149 0.9886,1.47457 0.85363,5.9782 -0.0804,2.68332 -0.22856,4.87876 -0.3292,4.87876 -0.10064,0 -2.84457,-1.73161 -6.09762,-3.84804 z M 57.031396,225.76882 C 57.512589,177.27168 57.3543,136.06967 58.594181,85.431407 70.717383,82.790899 197.41902,54.952281 197.79566,55.151437 196.82071,98.700718 196.66784,137.35801 196.21093,174.46509 M 50.673152,221.19552 c 0.03468,-49.71645 0.451402,-101.54971 0.740585,-144.083772 1.210232,2.112197 2.224047,3.025534 3.649674,5.250161 -1.130339,45.743391 -0.996541,92.881621 -1.436497,141.105051 -1.18436,-1.00228 -1.809128,-1.31571 -2.953762,-2.27144 z m -6.159919,-4.46973 C 44.728939,193.22255 44.801505,93.620674 44.856898,77.606933 33.286553,72.407137 30.494408,71.306224 17.906228,66.937644 c -0.29413,43.759366 0.435409,79.569206 -0.992627,130.265126 -0.0978,0.10995 -2.610178,-1.37192 -3.682994,-2.50316 0.582314,-48.14296 -0.11724,-84.71468 0.0025,-131.978518 5.512418,1.326218 19.768947,6.669296 35.237659,12.36808 -0.376358,55.173418 -0.935255,114.506838 -0.379202,144.279148 -0.775063,-0.51073 -3.18529,-2.30996 -3.578319,-2.64253 z m 40.10618,3.89241 c -0.73626,-0.81356 -0.52499,-0.93527 5.63437,-3.246 l 6.39931,-2.40075 0.92446,0.92446 0.92446,0.92446 -4.92728,1.87667 c -2.70999,1.03216 -5.33572,2.06303 -5.83494,2.29082 -1.42144,0.64858 -2.29224,0.54542 -3.12038,-0.36966 z M 20.105456,199.2746 c 0.592881,-43.28319 0.899278,-92.01824 0.151346,-128.819244 8.36602,3.993366 12.346078,4.749125 21.441813,9.101754 -0.0012,36.84507 -0.257189,97.18695 -0.194971,135.15524 -11.606108,-8.64096 -13.584956,-9.5418 -21.398188,-15.43775 z m 16.641253,-25.87898 c 0.90232,-0.62943 1.02113,-1.1019 1.02113,-4.06074 0,-2.38882 -0.16374,-3.34844 -0.57134,-3.34844 -0.31423,0 -2.26098,-1.13123 -4.32611,-2.51384 -2.06513,-1.38262 -3.93781,-2.40072 -4.16152,-2.26246 -0.22371,0.13826 -0.4724,-0.20907 -0.55265,-0.77185 -0.0803,-0.56278 -0.50331,-1.09135 -0.94013,-1.17461 -0.70592,-0.13454 -0.79421,0.27703 -0.79421,3.70242 0,2.11958 0.12565,4.18124 0.27923,4.58146 0.2098,0.54673 8.5983,6.71249 8.95777,6.58418 0.0367,-0.0131 0.5262,-0.34435 1.08783,-0.73612 z m -4.87357,-3.91564 c -1.86922,-1.30321 -3.47136,-2.74737 -3.56031,-3.20922 -0.12002,-0.62322 0.84406,-0.15377 3.73893,1.82062 2.14537,1.4632 3.90067,2.91565 3.90069,3.22767 6e-5,0.89224 -0.45784,0.68581 -4.07931,-1.83907 z m 0.0878,-3.56178 c -4.16298,-2.78279 -3.93061,-2.59913 -3.64707,-2.88267 0.28403,-0.28403 7.6343,4.4126 7.63682,4.87973 0.003,0.59996 -0.42633,0.38494 -3.98975,-1.99706 z m 135.427531,29.73151 c 0,-3.52802 -0.60018,-2.96579 5.61356,-5.25853 4.34663,-1.60381 4.37089,-1.59637 4.37089,1.342 0,1.88468 -0.19362,2.61151 -0.79421,2.98142 -0.9969,0.61399 -8.39,3.97345 -8.84986,4.02142 -0.18721,0.0195 -0.34038,-1.36931 -0.34038,-3.08631 z m -7.89024,1.025 c -3.27351,-0.90364 -6.21986,-1.78685 -6.54744,-1.9627 -0.35475,-0.19043 1.51517,-1.10192 4.62416,-2.25404 4.86663,-1.80347 5.32909,-1.89479 6.83588,-1.34992 l 1.61613,0.5844 v 3.31262 c 0,1.82194 -0.1298,3.31261 -0.28845,3.31261 -0.15865,0 -2.96677,-0.73934 -6.24028,-1.64297 z m 6.32086,-6.94914 c -0.10655,-0.1724 1.48622,-0.89578 3.53948,-1.60752 2.73111,-0.94671 4.09461,-1.20141 5.07957,-0.94887 1.24913,0.32029 1.0523,0.45173 -2.72592,1.82029 -3.7357,1.35315 -5.38449,1.5591 -5.89313,0.7361 z M 200.11686,54.708007 c 0.47695,-0.139728 0.95383,-0.247438 1.44821,-0.35075 -1.08313,41.369293 -0.70599,93.735273 -1.23731,118.790373 l -2.01489,0.75271 c 0.51048,-41.33587 0.83254,-88.921667 1.80399,-119.192333 z M 53.878093,75.338362 c 28.55376,-5.500075 50.415137,-9.696269 73.548227,-14.10425 l 69.01881,-13.015743 c 0.47629,0.598799 1.81888,2.011463 3.15335,3.925148 C 172.33725,57.169779 59.217007,81.293494 58.431997,81.334614 56.897062,79.044806 55.571685,77.572594 53.878093,75.338362 Z M 18.112961,61.055305 C 65.983177,52.331462 101.69162,48.120325 153.49291,39.89382 c 17.46244,4.12437 18.93617,3.455831 34.76725,6.840318 C 162.62412,51.180063 54.030251,73.110322 52.128881,73.165892 40.087592,68.661739 33.145653,66.111558 18.112961,61.055305 Z"
       id="path863"
       sodipodi:nodetypes="scssssscssscsssccccccccscssscsssssssscsssscccccccccccccccccccccssssccscccssscssssssssssssssssscsssscscsssscssscsscccccccccccccccc" />
    <path
       d="m 59.901757,218.91171 c -0.004,-0.55006 -0.445838,-3.90789 0.549115,-4.35127 53.575678,-18.27585 81.730268,-28.62747 132.466668,-45.64165 0.004,0.40617 0.4882,3.18489 0.0173,3.38347 -46.63098,16.25307 -78.50378,27.69296 -133.033083,46.60945 z m -0.38895,-10.99095 c -0.004,-0.37664 -0.03674,-5.0134 0.150454,-5.11259 50.470889,-15.244 87.135389,-27.78886 133.323839,-41.40599 0.004,0.40574 0.77058,3.35314 0.30014,3.55277 -47.18934,14.34187 -84.0857,27.39093 -133.774433,42.96581 z m 0.764792,-11.56851 c -0.004,-0.55668 -0.939017,-0.0164 -0.443505,-4.86828 43.488616,-12.29501 88.117036,-25.37447 133.857206,-38.51533 0.004,0.40467 -0.0378,3.94458 -0.50696,4.14479 -45.0339,12.99253 -87.37246,25.53712 -132.906741,39.23882 z m 49.488861,-24.81403 c 0.69027,-0.93851 3.5136,-3.68589 4.13254,-3.88673 14.94508,-4.03359 58.75259,-17.4563 79.74611,-22.71901 0.004,0.40666 0.0572,3.46261 -0.41434,3.66056 -9.22719,2.58561 -67.14282,18.83059 -83.46431,22.94518 z m 6.74452,-9.43694 c -0.003,-0.37711 2.2506,-3.29847 2.43779,-3.39673 12.87268,-2.90576 63.53913,-19.35364 74.90939,-21.05916 0.004,0.40436 -0.009,2.99014 -0.47765,3.19073 -11.274,1.72917 -71.00532,20.61609 -76.86953,21.26516 z m 4.49726,-8.07598 c -0.003,-0.37711 1.61319,-4.11597 1.80039,-4.214 12.73395,-3.18634 59.56756,-16.78555 71.28046,-18.84001 0.003,0.40337 0.18828,2.30174 -0.27885,2.50318 -11.59688,2.30383 -53.36398,15.73306 -72.802,20.55083 z m -23.779106,23.15992 c -1.773234,0.0835 -5.68681,-1.56719 -5.68681,-1.56719 -0.207173,-0.0331 11.865636,-2.74789 14.158216,-3.19918 -1.91995,2.19529 -2.88973,2.80071 -4.60835,3.84615 -2.710516,1.19291 -0.6178,0.39804 -3.863056,0.92022 z m 26.728616,-32.49076 c -0.003,-0.37709 0.53988,-3.37232 0.53988,-3.37232 12.5273,-2.60396 57.47364,-16.52372 69.92392,-18.77584 0.003,0.40316 0.14174,3.0394 -0.32515,3.24118 -11.85515,2.43463 -62.42047,17.9141 -70.13865,18.90698 z m -36.818264,28.37598 c 0,-0.37851 -4.058359,-3.40152 -3.871149,-3.49852 11.329495,-3.02792 16.515887,-3.31887 28.477703,-6.04576 0,0.40613 -2.11239,2.88692 -4.2997,4.48229 -8.280254,1.59911 -10.224335,2.26278 -20.306854,5.06199 z m -7.266136,-6.24265 c 0,-0.3785 -2.148354,-2.20091 -1.961134,-2.29813 14.772265,-4.694 27.066264,-6.48152 39.191624,-9.9294 0,0.4052 -1.14699,1.89531 -2.47396,3.59895 -9.74082,2.89696 -20.814057,4.20631 -34.75653,8.62858 z m -20.617501,18.6795 c 0,-0.3785 -0.02883,-4.76993 0.330256,-4.9368 10.555633,-2.05888 18.133921,-4.13044 24.048306,-5.68667 0.12409,0.50648 3.032753,1.45926 3.00026,2.54642 -4.219603,1.99253 -27.355676,8.28988 -27.378822,8.07705 z m 66.384021,-48.57085 c -0.003,-0.40091 0.25936,-3.15757 0.72365,-3.36185 15.28678,-2.92522 54.70887,-15.05731 68.02358,-18.2198 0.11142,0.44954 0,0.80561 -0.0665,2.1904 -13.06634,3.26315 -59.78019,18.69282 -68.68073,19.39125 z m -50.091294,24.27409 c -0.003,-0.37712 -1.574177,-3.22908 -1.386987,-3.32937 16.941583,-5.35598 29.730541,-6.73706 45.923041,-11.7076 0.003,0.46416 -0.5931,2.51042 -1.28388,2.80166 -15.61904,5.62047 -27.145746,6.15943 -43.252174,12.23531 z m 50.642154,-31.76718 c -0.003,-0.3997 -0.32694,-2.44977 0.13595,-2.65434 13.77998,-3.28678 54.29127,-16.27262 68.27331,-19.51633 0.11146,0.45215 0.41247,2.58108 -0.35965,2.91007 -13.65684,3.49498 -53.7981,16.40708 -68.04961,19.2606 z m -66.648781,45.62234 c -0.159238,-0.54874 0.110432,-3.38814 -0.01175,-3.88108 8.386165,-1.25709 7.18254,-1.30574 15.532153,-2.75556 0.808554,0.63288 2.74096,2.29005 3.006208,2.7719 -8.348811,1.7996 -10.192049,2.39611 -18.526611,3.86474 z m 13.248708,-21.07512 c -0.363609,0.0966 -1.017979,-2.57559 -0.705989,-2.72602 12.958268,-3.73392 33.438952,-7.28517 49.108582,-12.17509 0.007,0.46235 -0.216,2.57159 -0.90691,2.86601 -14.56341,4.87278 -35.348918,8.80917 -47.495683,12.0351 z m -0.385656,11.24294 c -3.217123,0.30428 -7.194548,1.26347 -13.194857,2.89124 0,-0.90745 -0.446767,-2.22756 0.03186,-3.21995 2.561449,-0.59566 9.355144,-1.82989 12.063484,-2.05088 0,0 0.581708,1.35794 1.099508,2.37959 z M 126.1585,121.79347 c -0.003,-0.37713 -0.72935,-3.19724 -0.72935,-3.19724 10.5849,-2.04484 54.64274,-15.65468 69.00214,-19.304312 0.003,0.46191 0.36756,2.766152 -0.31985,3.061432 -13.95879,3.73547 -53.27381,15.70769 -67.95294,19.44012 z m -54.502506,26.04494 c -0.364586,0.0964 -0.482677,-3.06976 -0.295477,-3.1699 17.325397,-4.63365 36.262173,-8.35396 51.558843,-13.59974 0.003,0.46412 0.16913,2.88447 -0.53396,3.14483 -15.28712,5.661 -32.479433,8.79799 -50.729406,13.62481 z m -12.618679,13.30337 c -0.205371,-1.89925 -0.489263,-1.01538 -0.07963,-3.35231 3.143946,-0.81787 5.074545,-0.62667 9.531532,-1.94051 0.977863,2.64325 0.977863,2.87111 0.977863,2.87111 -4.099655,1.57032 -4.854438,1.23979 -10.429762,2.42171 z m 65.154445,-47.00597 c -0.39023,0.0813 -2.87208,-2.79459 -2.41043,-3.00059 19.08562,-5.35308 43.404,-12.351471 73.03276,-20.20018 0.11176,0.451078 0.29886,2.458072 -0.47185,2.790349 -24.29916,6.578831 -51.60681,15.190131 -70.15048,20.410421 z m -53.299827,26.15467 c -0.357425,0.12025 -0.02213,-3.82085 0.16509,-3.92003 13.546506,-3.87319 38.961287,-8.30097 52.153387,-12.13294 0.003,0.46332 0.44833,2.28861 -0.26537,2.5157 -13.07146,4.15923 -38.006798,8.8115 -52.053107,13.53727 z m -3.183259,11.46514 c -3.520527,0.70873 -6.040655,1.11469 -8.85777,2.07112 -0.0512,-1.24555 -0.303199,-1.90609 -0.08354,-3.7541 2.663332,-0.58589 5.102962,-0.82856 8.724389,-1.2575 0.0558,1.40983 0.216679,1.22795 0.216921,2.94048 z M 59.12613,146.3386 c -0.18571,-1.25352 0.19431,-2.79292 0.08412,-3.24064 -0.18278,-0.74254 3.898035,-0.30041 8.123455,-1.58158 0.07228,1.7061 -0.142585,2.21948 -0.03038,3.37042 -2.344023,0.6196 -4.28569,0.87928 -8.17719,1.4518 z m 12.163257,-14.31178 c -0.358032,0.11554 0.663797,-3.8771 0.975817,-4.02755 9.413599,-2.76718 34.274046,-6.56379 47.801996,-11.04469 0.007,0.46237 1.38767,2.0673 0.69677,2.36172 -13.16691,4.98037 -44.393503,11.07079 -49.474583,12.71052 z m 45.936263,-25.73601 c 0,-0.39915 -2.40707,-2.19548 -1.9464,-2.40125 31.43413,-8.249611 45.25753,-11.783472 80.15154,-21.405313 0.11038,0.451181 0.13517,2.513143 -0.63472,2.845577 -33.68713,10.131034 -77.41487,21.577506 -77.57042,20.960986 z m -6.26718,-5.69293 c -0.10081,-0.40836 -3.97693,-2.032115 -3.42956,-2.277885 22.70718,-5.293344 52.90323,-13.129716 87.76367,-22.818597 0.11144,0.44963 0.72696,2.351132 -0.0424,2.684833 -34.2286,9.42131 -63.81416,17.267958 -84.29175,22.411649 z m -51.42299,37.32994 c -0.198281,-1.29397 -0.107481,-1.85961 -0.270662,-3.32884 2.144283,-0.55745 5.187051,-0.79718 8.458276,-1.21769 0.0488,1.51294 0.04718,1.90119 -0.164482,3.37919 -2.872829,0.38895 -4.809803,0.59847 -8.023132,1.16734 z m 13.708701,-15.11265 c -0.383071,0.10913 1.251056,-3.40393 1.712326,-3.61033 13.110563,-3.82119 26.020143,-5.58354 39.349683,-10.20575 0.43473,-0.15075 3.57802,3.33181 2.80965,3.66224 -14.63784,5.04456 -28.212441,5.69299 -43.871659,10.15384 z M 179.3182,77.353231 c -0.68082,-1.1094 -0.62938,-2.419953 -0.77282,-3.681228 0.007,-4.049869 0.76727,-6.436704 1.95551,-6.593749 0.59108,-0.07812 0.30673,1.748221 0.30673,4.603341 0,3.691061 0.76191,3.477715 2.89709,2.485564 0.4788,-0.222482 1.01108,1.224427 1.01108,1.548853 -3.26702,1.164454 -3.28976,1.072982 -5.39759,1.637219 z m 7.46518,-2.485039 c -1.15232,-1.170398 -1.87072,-2.020145 -1.88118,-4.030164 -0.008,-1.577876 0.21763,-2.251805 1.20941,-3.609648 0.67073,-0.918288 1.48764,-1.794209 1.81536,-1.946488 0.32771,-0.152273 2.33454,-1.227834 2.33454,-1.392539 0,-0.24377 -96.813007,23.647943 -129.744357,32.213798 C 59.803514,94.214302 59.595474,92.895039 60.117511,90.968168 92.55861,83.231036 166.25973,65.467825 195.16391,60.20714 c 0.11015,0.444451 -0.0378,1.483519 -0.18624,2.506316 -1.07249,0.213589 -3.74772,0.774931 -1.39446,0.853061 0.1221,0.368396 0.13412,1.056138 -1.3e-4,1.710048 -3.28062,0.0031 -7.67896,4.007437 -6.40495,6.318986 0.59693,1.08303 1.16275,2.17189 2.80215,1.418031 1.08572,-0.499301 2.51351,-0.525867 2.51351,-1.552151 0,-0.917579 -1.1499,-0.81646 -1.85588,-0.488414 -0.51916,0.241237 -0.51114,-0.711866 -0.51114,-1.062179 0,-0.477378 0.54144,-0.563087 2.00812,-0.943629 l 1.56646,-0.06337 0.50213,1.396447 c 0.34818,0.968287 -0.0962,2.189526 -0.39596,2.641791 -1.23511,0.924031 -3.52976,1.728863 -4.92573,2.056797 z m -17.53626,6.828467 c -1.97217,0.625652 -3.60473,0.537237 -4.25942,-0.983634 -0.81661,-1.897024 -0.60631,-4.204564 0.76799,-6.811852 1.93635,-3.673659 2.61381,-3.342192 5.34077,-3.928378 2.97001,-0.63843 4.26916,1.495083 4.03137,3.858864 -0.41305,4.10621 -1.96657,6.623272 -5.88071,7.865 z M 59.515923,129.61183 c -0.0028,-1.39524 0.116607,-2.21376 0.06905,-3.60418 3.819355,-1.33671 5.771533,-1.79558 9.468046,-2.33158 -0.600054,1.93453 -0.482739,2.61638 -0.912395,4.20629 -2.792769,0.25555 -3.764893,0.53495 -8.624703,1.72947 z M 77.80549,113.26292 c 0,-0.39903 1.785918,-2.96031 2.729792,-4.02587 5.417095,-3.36061 18.33831,-5.12589 26.003498,-6.79825 1.59629,0.9593 3.56706,1.99194 4.21537,2.71073 -4.07564,1.27954 -23.00759,5.38096 -32.94866,8.11339 z m -18.252369,-8.1364 c -0.003,-0.3771 0.145309,-2.28748 0.498991,-4.41951 C 71.73029,97.613785 160.12256,77.214953 161.65926,76.927755 c 1.67288,-0.312681 0.7488,2.94532 -0.88321,3.688431 -34.5994,8.647295 -67.865553,16.25795 -101.222929,24.510334 z m 0.04991,16.03233 c -0.01619,-2.61901 0.440201,-3.47515 0.438241,-4.02226 3.86391,-0.751 7.217725,-2.03854 13.129705,-3.48772 -1.316999,1.99864 -1.844227,3.49818 -2.702284,5.06452 -3.079182,0.52615 -4.833642,0.92408 -10.865662,2.44546 z m 24.666187,-18.04151 c 3.953841,-5.23683 16.321512,-5.11738 16.817522,-3.781093 -4.31369,1.415293 -12.564827,2.979703 -16.817522,3.781093 z m -9.200858,6.4286 c -6.857947,1.35395 -10.771291,2.26427 -14.994412,3.32131 -0.20905,-0.8434 -0.336287,-2.26307 -0.09408,-3.65012 6.98881,-2.06431 11.874358,-3.10941 18.384324,-4.29815 -1.509286,1.65029 -2.544927,2.41137 -3.295828,4.62696 z"
       style="fill:#000000;stroke-width:0.111775"
       id="path9677"
       sodipodi:nodetypes="ccccccccccccccccccccccccccccccccccccccccccccccccccccccccccccccccccccccscccscccscsccccscccscssscsscccssccssccsscccccccccccccccscccssccccsccccccccscscscccsssccssscccscccccccccssccccscccccccccccccccccccccccccccccccccc" />
  </g>
</svg>
