<?xml version="1.0" encoding="UTF-8" standalone="no"?>
<!-- Created with Inkscape (http://www.inkscape.org/) -->

<svg
   width="209.67346mm"
   height="223.28862mm"
   viewBox="0 0 209.67346 223.28862"
   version="1.1"
   id="svg847"
   inkscape:version="1.1.1 (3bf5ae0d25, 2021-09-20)"
   sodipodi:docname="icon.svg"
   xmlns:inkscape="http://www.inkscape.org/namespaces/inkscape"
   xmlns:sodipodi="http://sodipodi.sourceforge.net/DTD/sodipodi-0.dtd"
   xmlns="http://www.w3.org/2000/svg"
   xmlns:svg="http://www.w3.org/2000/svg">
  <sodipodi:namedview
     id="namedview849"
     pagecolor="#505050"
     bordercolor="#ffffff"
     borderopacity="1"
     inkscape:pageshadow="0"
     inkscape:pageopacity="0"
     inkscape:pagecheckerboard="1"
     inkscape:document-units="mm"
     showgrid="false"
     inkscape:zoom="0.61580177"
     inkscape:cx="267.13142"
     inkscape:cy="534.26283"
     inkscape:window-width="1440"
     inkscape:window-height="890"
     inkscape:window-x="-6"
     inkscape:window-y="-6"
     inkscape:window-maximized="1"
     inkscape:current-layer="layer1" />
  <defs
     id="defs844" />
  <g
     inkscape:label="Laag 1"
     inkscape:groupmode="layer"
     id="layer1"
     transform="translate(-0.34211347,-20.395824)">
    <path
       style="fill:#000000;stroke-width:0.453839"
       d="m 93.412773,231.6624 c 4.11859,-1.8518 7.743627,-3.37241 8.055637,-3.37913 0.42418,-0.009 0.5673,-1.50354 0.5673,-5.92337 0,-5.74389 -0.0294,-5.92232 -1.03979,-6.30646 -0.57188,-0.21743 -1.308877,-0.71956 -1.637757,-1.11584 -0.51206,-0.617 -0.44417,-0.77827 0.47249,-1.12244 0.588747,-0.22106 11.907607,-4.4091 25.152997,-9.30676 l 24.08255,-8.90483 8.05391,2.23188 c 4.42965,1.22753 8.35331,2.48036 8.71924,2.78405 0.53932,0.4476 1.82339,0.0521 6.78021,-2.08839 l 6.11488,-2.64055 v -3.75731 c 0,-3.87525 -0.60054,-6.06921 -1.66128,-6.06921 -1.90139,0 0.60691,-1.11999 11.18044,-4.99223 l 11.77291,-4.31146 0.22401,-2.2692 c 0.22124,-2.2411 2.57707,-111.530519 2.55089,-118.338423 -0.0113,-2.936303 -0.21551,-3.944722 -0.21551,-3.944722 -0.90939,-1.614248 -1.61054,-2.475173 -2.34359,-3.370579 -1.15719,-1.405629 -2.38808,-2.55569 -2.73531,-2.55569 -0.34723,0 -0.98596,-0.206002 -1.41939,-0.457781 -0.43343,-0.25178 -10.11299,-2.388187 -21.51012,-4.747573 L 153.85543,36.786591 92.886533,47.005889 c -87.8742896,14.729046 -78.09891,12.928909 -78.50763,14.457188 -0.1899,0.710029 -0.36207,8.561918 -0.38262,17.448642 -0.0206,8.886716 -0.22809,32.189521 -0.46119,51.784001 -0.2331,19.59449 -0.43011,42.7051 -0.43779,51.35693 l -0.014,15.7306 20.82604,15.45396 c 11.45432,8.49968 21.10406,15.51261 21.44388,15.58428 0.33981,0.0717 0.75634,0.32285 0.92562,0.55819 0.17849,0.24813 2.83964,-0.49861 6.33455,-1.77753 3.31472,-1.21298 6.23962,-2.20307 6.49979,-2.20018 0.26017,0.003 3.79944,2.18131 7.86505,4.84094 4.06561,2.65964 7.7417,4.82461 8.16909,4.81105 0.4274,-0.0136 4.14684,-1.53977 8.26542,-3.39156 z m -7.61767,-3.48902 0.12934,-4.63604 6.80758,-2.60813 c 3.74416,-1.43446 6.96075,-2.61588 7.14795,-2.62537 0.611937,-0.031 0.394887,8.0633 -0.22691,8.46228 -1.10955,0.71195 -12.83097,5.95975 -13.40412,6.00116 -0.44748,0.0323 -0.55308,-1.03664 -0.45384,-4.5939 z m -8.25194,0.33416 c -3.25306,-2.11642 -5.91464,-3.93212 -5.91464,-4.03489 0,-0.10278 2.3598,-1.06135 5.24399,-2.13016 l 5.24399,-1.94331 0.99985,1.09944 c 0.92296,1.0149 0.9886,1.47457 0.85363,5.9782 -0.0804,2.68332 -0.22856,4.87876 -0.3292,4.87876 -0.10064,0 -2.84457,-1.73161 -6.09762,-3.84804 z M 194.02779,177.6877 c 0.23475,0.23475 -123.416055,45.13057 -124.240995,45.1142 -0.37441,-0.007 -1.392372,0.37424 -1.739652,0.65223 -0.78078,0.62498 -10.5677,4.32391 -11.10327,4.19643 -0.21409,-0.051 -0.3567,-32.29966 -0.31742,-71.78291 0.03923,-39.42971 0.21577,-71.834951 0.39232,-72.011651 0.34626,-0.34655 140.400247,-28.903718 140.776887,-28.704562 0.12481,0.06599 -0.12074,23.166222 -0.54565,51.333833 -0.42492,28.16762 -0.89983,48.79871 -0.90768,60.48005 -0.008,11.68134 0.55429,9.4595 0.13117,9.60031 m -144.103027,48.15372 -1.72003,-1.28249 0.11357,-32.86887 c 0.0625,-18.07787 0.23848,-51.24547 0.39113,-73.70577 l 0.27756,-40.836891 1.81535,3.16829 1.81536,3.16829 -0.13432,71.819961 c -0.0739,39.50099 -0.29277,71.81997 -0.48645,71.81997 -0.19367,0 -1.12615,-0.57712 -2.07217,-1.28249 z m -4.53606,-3.51523 c -0.64225,-0.64224 -0.71318,-7.75161 -0.71318,-71.47959 0,-62.600925 -0.0786,-70.766411 -0.68076,-70.766411 -0.37441,0 -0.68278,-0.3574 -0.68525,-0.79422 -0.004,-0.61729 -3.04271,-2.0031 -13.64356,-6.22111 -14.93353,-5.94196 -14.25382,-5.836029 -14.68314,-2.288362 -0.12082,0.998445 -0.46009,30.100848 -0.75393,64.672003 -0.29384,34.57116 -0.61426,62.94661 -0.71205,63.05656 -0.0978,0.10995 -0.4361,-0.0943 -0.75181,-0.45383 -0.46286,-0.52714 -0.44969,-13.48669 0.068,-66.91419 0.3531,-36.443245 0.70946,-66.336616 0.79192,-66.429713 0.16524,-0.186555 32.5419,10.781282 33.16113,11.233582 0.21208,0.15491 0.25746,19.989596 0.10083,44.077081 -0.15662,24.08749 -0.30979,57.12127 -0.34038,73.4084 -0.0306,16.28714 -0.14313,29.61297 -0.25011,29.61297 -0.10698,0 -0.51543,-0.32092 -0.90767,-0.71317 z m 36.785,-0.58592 c -0.73626,-0.81356 -0.52499,-0.93527 5.63437,-3.246 l 6.39931,-2.40075 0.92446,0.92446 0.92446,0.92446 -4.92728,1.87667 c -2.70999,1.03216 -5.33572,2.06303 -5.83494,2.29082 -1.42144,0.64858 -2.29224,0.54542 -3.12038,-0.36966 z m -53.51911,-11.63531 -13.46326,-9.98445 0.21313,-3.85763 c 0.11722,-2.12169 0.44734,-31.32621 0.73359,-64.89893 0.28626,-33.572715 0.59874,-61.129759 0.69438,-61.237881 0.0957,-0.108123 6.04208,2.148018 13.21428,5.01365 l 13.04038,5.21023 0.11489,70.016741 c 0.0949,57.83519 0.0106,69.99117 -0.48461,69.86973 -0.32973,-0.0808 -6.65798,-4.64001 -14.06278,-10.13146 z m 5.398855,-25.19011 c 0.90232,-0.62943 1.02113,-1.1019 1.02113,-4.06074 0,-2.38882 -0.16374,-3.34844 -0.57134,-3.34844 -0.31423,0 -2.26098,-1.13123 -4.32611,-2.51384 -2.06513,-1.38262 -3.93781,-2.40072 -4.16152,-2.26246 -0.22371,0.13826 -0.4724,-0.20907 -0.55265,-0.77185 -0.0803,-0.56278 -0.50331,-1.09135 -0.94013,-1.17461 -0.70592,-0.13454 -0.79421,0.27703 -0.79421,3.70242 0,2.11958 0.12565,4.18124 0.27923,4.58146 0.2098,0.54673 8.5983,6.71249 8.95777,6.58418 0.0367,-0.0131 0.5262,-0.34435 1.08783,-0.73612 z m -4.87357,-3.91564 c -1.86922,-1.30321 -3.47136,-2.74737 -3.56031,-3.20922 -0.12002,-0.62322 0.84406,-0.15377 3.73893,1.82062 2.14537,1.4632 3.90067,2.91565 3.90069,3.22767 6e-5,0.89224 -0.45784,0.68581 -4.07931,-1.83907 z m 0.0878,-3.56178 c -4.16298,-2.78279 -3.93061,-2.59913 -3.64707,-2.88267 0.28403,-0.28403 7.6343,4.4126 7.63682,4.87973 0.003,0.59996 -0.42633,0.38494 -3.98975,-1.99706 z m 135.675082,19.33435 c 0,-3.52802 -0.60018,-2.96579 5.61356,-5.25853 4.34663,-1.60381 4.37089,-1.59637 4.37089,1.342 0,1.88468 -0.19362,2.61151 -0.79421,2.98142 -0.9969,0.61399 -8.39,3.97345 -8.84986,4.02142 -0.18721,0.0195 -0.34038,-1.36931 -0.34038,-3.08631 z m -7.89024,1.025 c -3.27351,-0.90364 -6.21986,-1.78685 -6.54744,-1.9627 -0.35475,-0.19043 1.51517,-1.10192 4.62416,-2.25404 4.86663,-1.80347 5.32909,-1.89479 6.83588,-1.34992 l 1.61613,0.5844 v 3.31262 c 0,1.82194 -0.1298,3.31261 -0.28845,3.31261 -0.15865,0 -2.96677,-0.73934 -6.24028,-1.64297 z m 6.32086,-6.94914 c -0.10655,-0.1724 1.48622,-0.89578 3.53948,-1.60752 2.73111,-0.94671 4.09461,-1.20141 5.07957,-0.94887 1.24913,0.32029 1.0523,0.45173 -2.72592,1.82029 -3.7357,1.35315 -5.38449,1.5591 -5.89313,0.7361 z m 33.05728,-74.57355 c 0.46959,-33.011231 1.02781,-60.211042 1.24049,-60.444013 0.21269,-0.232971 0.53335,-0.276935 0.71259,-0.0977 0.17923,0.179236 -0.2332,26.102502 -0.91653,57.607253 -0.68333,31.50475 -0.91443,59.199 -0.9054,60.75907 0.009,1.56007 -0.59735,2.37671 -0.64456,2.19555 -0.98872,-3.79366 0.0438,-27.00892 0.51341,-60.02016 z M 54.994883,78.557439 l -1.87918,-3.12371 2.33537,-0.46522 c 1.28445,-0.25587 33.67331,-6.436353 71.975247,-13.734397 l 69.63987,-13.269174 1.93131,2.22181 c 1.16831,1.344045 1.71582,2.296522 1.38587,2.410923 -0.82693,0.286713 -142.041187,29.006578 -142.826197,29.047698 -0.38026,0.0199 -1.51623,-1.34909 -2.56229,-3.08793 z M 34.594053,67.814851 c -9.20998,-3.133465 -16.88759,-5.839478 -17.06135,-6.013364 -0.17377,-0.173886 30.46034,-5.465972 68.0758,-11.760192 l 68.391727,-11.444037 19.20079,4.019621 c 10.56043,2.210791 19.27861,4.097447 19.37373,4.19257 0.25818,0.258178 -137.698857,26.59925 -139.600227,26.65482 -1.00487,0.0294 -8.08908,-2.14803 -18.38047,-5.649418 z"
       id="path863"
       sodipodi:nodetypes="scssssscssscssscscccssscsscsscsssscssssscsssssssscssssccsssssszcsccsccccssssscssssssssssssssscccsssscsscscscsssssscsssssssssssscssssssssssscsssssssscscssscscsscssssssscscss" />
    <path
       d="m 59.88062,224.22589 c 0.33663,-0.0589 -0.18989,-1.39437 -0.18989,-1.89674 49.49097,-19.13649 87.1185,-31.97823 135.61674,-48.534 0.36367,-0.0981 0.0875,0.8622 0.19238,1.15148 -47.12709,17.17298 -85.43638,30.40624 -135.61923,49.27926 m 0.131867,-5.90384 c -0.004,-0.55006 -0.771396,-1.27736 0.223557,-1.72074 48.475816,-18.23068 84.400406,-30.44088 135.136806,-47.45506 0.004,0.40617 0.27337,1.35884 -0.19753,1.55742 -46.63098,16.25307 -85.87925,29.41545 -135.162833,47.61838 z m -0.386045,-5.11679 c -0.003,-0.3771 -0.267383,-2.02474 -0.267383,-2.02474 46.564271,-16.95851 109.870531,-38.68715 135.536611,-46.20715 0.40468,-0.0442 0.5416,1.78789 0.0702,1.98557 -25.61179,8.38636 -87.2887,28.67282 -135.339428,46.24632 z m 0.208607,-6.0364 c -0.004,-0.37664 -0.466392,-2.0058 -0.279202,-2.10499 26.205313,-8.82406 110.594533,-38.89274 135.711143,-44.55814 0.004,0.40574 0.1941,1.14721 -0.27631,1.34684 -23.4916,6.61881 -109.428947,37.14147 -135.155631,45.31629 z m 0.02641,-6.47734 c -0.004,-0.5555 -0.958193,-1.6432 -0.155693,-1.88317 26.161988,-8.58744 113.877824,-37.18624 135.109614,-42.27924 0.004,0.40466 0.19154,1.0099 -0.27758,1.21013 -21.34541,6.12059 -116.023864,36.67644 -134.676341,42.95228 z m -0.09322,-7.57808 c -0.004,-0.55668 -0.957983,-2.24685 -0.148973,-2.48878 29.733204,-8.37534 119.708514,-34.13459 135.361004,-37.87085 0.004,0.40467 0.28445,1.47406 -0.18472,1.67427 -15.88992,3.83983 -112.567684,32.36369 -135.027311,38.68536 z m 47.635111,-19.64177 c 0.69027,-0.93851 1.68756,-2.39692 2.3065,-2.59776 14.94508,-4.03359 75.61661,-19.49716 85.22423,-21.43004 0.004,0.40666 0.37943,1.0995 -0.0921,1.29745 -9.22719,2.58561 -71.11714,18.61576 -87.43863,22.73035 z m 3.9179,-5.06449 c -0.004,-0.37664 1.8994,-2.14513 2.08662,-2.2446 14.63442,-2.47455 70.71316,-18.89163 81.62826,-20.34691 0.004,0.40559 0.42581,1.28678 -0.0444,1.4865 -9.79935,1.93912 -76.75173,19.92178 -83.67048,21.10501 z m 5.12352,-5.57274 c -0.004,-0.54856 1.23495,-1.98943 2.00062,-2.21741 13.82087,-2.25534 65.44162,-17.36499 76.77773,-18.59513 0.003,0.40526 0.23797,1.14888 -0.23137,1.34879 -10.9582,1.40478 -71.30619,18.28215 -78.54698,19.46375 z m 2.10708,-4.38524 c -0.003,-0.37711 0.63939,-1.2576 0.82658,-1.35586 12.87268,-2.90576 64.61327,-17.20536 75.98353,-18.91088 0.004,0.40436 0.0986,1.05669 -0.37024,1.25728 -11.274,1.72917 -70.57566,18.36039 -76.43987,19.00946 z m 1.32778,-3.58307 c -0.003,-0.37711 0.47691,-1.32413 0.6641,-1.42292 12.6182,-2.66888 63.17726,-17.03771 74.68009,-18.98621 0.003,0.40431 0.23613,1.24339 -0.23207,1.44405 -11.05652,1.85305 -65.94603,17.60355 -75.11212,18.96508 z m 1.23602,-3.6336 c -0.003,-0.37711 0.37793,-1.3232 0.56513,-1.42123 12.73395,-3.18634 61.87697,-17.00038 73.58987,-19.05484 0.003,0.40337 0.18828,1.01277 -0.27885,1.21421 -11.59688,2.30383 -65.07213,18.20359 -73.87615,19.26186 z m 1.21354,-3.9675 c -0.003,-0.3771 0.64021,-1.81561 0.82743,-1.91478 10.8124,-2.27966 60.22514,-15.83427 72.28979,-18.39055 0.002,0.4038 0.18774,1.29145 -0.27936,1.49273 -11.85382,2.53206 -64.56975,18.1121 -72.83786,18.8126 z m -27.896039,29.19365 c -1.343577,0.0835 -2.890827,-0.84065 -2.890827,-0.84065 -0.207173,-0.0331 10.845206,-3.17755 13.137786,-3.62884 0.0135,1.28227 -1.77369,1.72633 -1.77369,2.28841 -5.2884,2.09467 -3.432071,1.25324 -8.473119,2.18108 z m 29.131799,-33.1606 c -0.003,-0.37709 0.2138,-1.42171 0.40101,-1.52022 12.5273,-2.60396 58.86462,-15.47564 71.3149,-17.72776 0.003,0.40316 0.14174,1.10595 -0.32515,1.30773 -11.85515,2.43463 -63.67258,16.94737 -71.39076,17.94025 z m -36.453494,30.90305 c -1.111926,-0.37851 -1.70081,-1.18302 -1.51359,-1.27863 9.030752,-2.07565 24.683424,-7.10054 24.779184,-6.42165 2.7e-4,0.40559 -2.96935,2.4948 -3.43756,2.69334 -0.94995,0.69564 -14.914907,4.62948 -19.828034,5.00694 z m -27.302191,12.67908 c -0.41359,0.0735 -0.621929,-1.4757 -0.07438,-1.72053 0.45514,-0.20367 17.743488,-4.9704 27.85419,-7.98351 1.197006,0.46881 0.977449,0.92894 2.306886,1.34003 -10.47356,2.97413 -19.984705,6.5681 -30.086694,8.36401 z m 23.472433,-15.57693 c 0,-0.37851 -1.811783,-1.74177 -1.624573,-1.83877 4.025331,-1.09447 27.042475,-6.75613 31.914955,-7.76439 0,0.40613 -1.03825,1.92019 -1.50693,2.11918 -1.19092,0.41755 -25.790268,6.61822 -28.783452,7.48398 z m 40.770812,-31.55907 c -0.003,-0.37711 0.73701,-1.75053 0.92422,-1.85106 12.034,-2.81121 57.38823,-15.21125 70.34928,-17.75035 0.004,0.46417 0.32642,1.24203 -0.36509,1.53331 -12.38785,2.63303 -58.27404,16.08051 -70.90841,18.0681 z m -44.501402,28.15772 c 0,-0.3785 -1.181627,-1.44901 -0.994407,-1.54623 4.675333,-1.25675 34.155599,-9.05946 38.117479,-9.71457 0,0.4052 -1.14699,2.32497 -1.61464,2.52481 -4.58494,1.28575 -35.314973,9.68443 -35.508432,8.73599 z M 59.678174,181.9407 c 0,-0.3785 0.02839,-1.87389 0.387478,-2.04076 5.998435,-1.98293 16.591028,-4.52324 22.505413,-6.07947 0.12409,0.50648 1.665594,0.85164 1.633101,1.9388 -4.219603,1.99253 -24.502846,6.39426 -24.525992,6.18143 z m 17.863027,-17.28788 c 0,-0.37973 -1.098442,-1.50425 -0.911242,-1.59699 5.337764,-1.4328 41.353421,-11.46164 41.562021,-10.5111 0,0.47397 -0.52311,1.74849 -1.22129,2.03315 -5.1951,1.46533 -39.213684,11.06532 -39.429489,10.07494 z m 47.937549,-29.11276 c -0.003,-0.40091 0.25936,-1.22412 0.72365,-1.4284 15.28678,-2.92522 55.7293,-14.30541 69.04401,-17.4679 0.11142,0.44954 0,0 -0.0665,1.38479 -13.06634,3.26315 -60.80062,16.81308 -69.70116,17.51151 z m -49.930174,25.67047 c -0.003,-0.37712 -0.929692,-1.61787 -0.742502,-1.71816 6.200166,-1.59648 41.331266,-10.92621 44.634076,-11.81501 0.003,0.46416 -0.37828,1.86593 -1.06906,2.15717 -6.05918,1.64615 -42.505968,12.60428 -42.822514,11.376 z M 126.06202,131.759 c -0.003,-0.37713 -0.0157,-1.55459 0.17158,-1.65409 10.67336,-1.47975 55.42865,-14.31131 68.6388,-17.22305 0.003,0.46395 0.41646,1.01148 -0.27404,1.303 -12.82886,3.19344 -57.80904,15.84309 -68.53634,17.57414 z m -65.937615,45.19772 c -1.018802,-0.25263 -0.134577,-1.38982 -0.136297,-1.96169 6.890836,-2.31758 8.418357,-1.59862 18.266597,-4.26705 1.805291,0.0451 1.51607,1.12177 1.63624,1.60658 -7.055267,2.2212 -12.550863,2.6678 -19.76654,4.62216 z m 13.898043,-19.40459 c -0.005,-0.37618 -0.794499,-1.60072 -0.482479,-1.75104 6.814232,-1.49225 43.075111,-13.11691 47.103971,-12.69967 0.007,0.46241 -0.28434,1.37455 -0.92573,2.41259 -6.70747,1.54997 -39.175507,10.71675 -45.695762,12.03812 z m 52.168282,-29.39775 c -0.003,-0.3997 -0.32694,-1.1608 0.13595,-1.36537 13.77998,-3.28678 54.93575,-14.76882 68.91779,-18.01253 0.11146,0.45215 0.51988,0.96987 -0.25224,1.29886 -13.65684,3.49498 -54.54999,15.22552 -68.8015,18.07904 z m -66.648781,44.55676 c -0.159238,-0.54874 0.110432,-1.03359 -0.01175,-1.52653 4.360641,-1.409 8.169933,-1.30574 16.215733,-3.74295 0.808554,0.63288 1.069987,0.84693 1.335235,1.32878 -4.871928,1.18316 -7.511396,1.58836 -17.53922,3.9407 z m 13.248708,-18.72057 c -0.005,-0.37618 -0.695737,-1.50145 -0.383747,-1.65188 7.694974,-1.47822 46.22124,-14.15967 48.78634,-13.24923 0.007,0.46235 0.10624,1.28262 -0.58467,1.57704 -7.58149,1.54294 -41.364109,11.81677 -47.817923,13.32407 z m 1.892943,11.62271 c -3.217123,0.30428 -15.056831,3.92183 -15.056831,3.34696 0,-0.90745 -0.067,-0.55659 0.411632,-1.54898 2.561449,-0.59566 10.761397,-3.04514 13.469737,-3.26613 0,0 0.657662,0.4465 1.175462,1.46815 z m 51.31538,-40.9184 c -0.003,-0.3997 -0.22867,-1.42288 0.23422,-1.62746 17.65339,-3.74637 54.57586,-14.67572 68.55743,-18.01253 0.11147,0.45215 0.70558,0.87703 -0.0665,1.20601 -13.86959,3.70971 -53.00242,15.9953 -68.72515,18.43398 z m -54.461011,26.09095 c -0.003,-0.37711 -0.07465,-0.99133 0.112571,-1.09178 8.045344,-1.65969 47.99503,-15.09766 50.56667,-14.53237 0.003,0.46397 -0.0639,1.44811 -0.75451,1.73969 -8.67887,1.13946 -44.062813,13.64723 -49.924731,13.88446 z m -5.544364,13.33554 c -5.298774,1.25675 -6.571019,1.36922 -6.441835,-0.29998 -0.19013,-0.76711 1.517573,-0.19147 7.507823,-2.0849 3.54912,-1.1218 4.864007,-0.85437 4.981987,-0.37836 1.096524,1.54576 -0.668674,1.13207 -6.047975,2.76324 z m 59.520415,-43.50946 c -0.003,-0.37713 0.0502,-1.16219 0.23737,-1.26378 10.5849,-2.04484 54.75016,-15.33244 69.10956,-18.98207 0.003,0.46191 0.36756,1.24708 -0.31985,1.54236 -13.95879,3.73547 -54.72772,16.64204 -69.02708,18.70349 z m -54.34139,27.38762 c -0.003,-0.37711 6.87e-4,-1.51225 0.187887,-1.61239 7.980365,-1.62606 47.970313,-16.08778 51.558843,-15.31837 0.003,0.46412 0.2642,1.3495 -0.42655,1.64103 -9.16451,1.47185 -50.793544,16.90776 -51.32018,15.28973 z m -7.224414,12.41417 c -3.471362,0.83507 -4.56912,1.1161 -4.68514,0.64176 -0.19484,-0.79685 0.36502,-1.03818 6.26396,-2.70005 3.6825,-1.03744 5.265603,-1.17643 5.383153,-0.69869 0.19569,0.79527 -2.442736,1.58524 -6.961973,2.75695 -1e-5,0 0,3e-5 0,3e-5 z m 60.947064,-43.22785 c -0.003,-0.39789 -1.04618,-1.26188 -0.58533,-1.46855 14.23669,-3.43859 55.30857,-15.09792 70.23799,-19.200003 0.11115,0.44849 1.07422,1.248471 0.30501,1.580233 -15.16182,4.13355 -55.80444,16.88708 -69.95767,19.08832 z m -54.099994,26.45778 c -0.003,-0.39966 -0.118928,-1.51989 0.343912,-1.72495 13.630362,-2.70128 35.967562,-12.56086 51.895342,-14.35068 0.11192,0.45161 0.26382,1.12967 -0.50847,1.45811 -7.86478,1.86976 -44.067572,13.23281 -51.730784,14.61752 z m -7.97994,13.7468 c -2.18884,0.68703 -2.98302,0.76581 -3.09668,0.30717 -0.18293,-0.73801 0.5715,-1.11267 5.12844,-2.54684 2.37221,-0.74657 4.698366,-1.29098 4.811346,-0.83512 0.17762,0.71663 -2.299676,1.64864 -6.843106,3.07479 z M 157.77873,104.1284 c -30.61695,8.5778 -22.38029,6.96445 -34.66111,9.52405 -0.39023,0.0813 -1.63682,-1.12968 -1.17517,-1.33568 9.89122,-2.88707 17.93714,-4.81232 37.52821,-10.30094 29.95459,-8.392031 35.64449,-9.881133 35.77309,-9.362163 0.11176,0.451078 -0.1308,0.739445 -0.90151,1.071722 -0.57993,0.249987 -17.03351,4.931388 -36.56351,10.403011 z m -86.859943,35.03423 c -0.003,-0.3771 -0.04898,-1.51144 0.138236,-1.61062 8.175798,-1.72491 51.421327,-15.49772 52.153387,-13.3145 0.003,0.46332 -0.32772,0.82697 -1.01727,1.11932 -8.02299,1.79611 -45.418375,12.35616 -51.274353,13.8058 z m -8.22303,14.79564 c -1.537317,0.61211 -2.60959,0.67939 -2.60959,0.0833 0,-0.86845 0.54301,-1.14818 4.30872,-2.21963 1.91696,-0.54544 4.475325,-1.16621 4.580655,-0.74123 0.17071,0.68869 -2.013525,1.62278 -6.279785,2.87752 -1.3e-5,0 0,4e-5 0,4e-5 z m 94.290473,-53.78464 c -31.05502,8.89253 -36.77907,10.42907 -36.90769,9.9074 -0.10072,-0.40856 -1.12548,-1.19859 -0.57796,-1.44387 0.45514,-0.20367 18.72256,-4.69 39.06254,-10.526158 31.2579,-8.968837 37.00547,-10.51568 37.1346,-9.994018 0.11154,0.450619 -0.13181,0.740641 -0.90165,1.074528 -0.57992,0.251545 -17.59435,5.193473 -37.80984,10.982118 z M 62.587567,150.3206 c -1.9703,0.59025 -2.75958,0.64433 -2.86977,0.19661 -0.18278,-0.74255 0.67561,-1.09787 4.90103,-2.37905 2.16686,-0.65702 4.224242,-0.48234 4.336452,-0.0296 0.18021,0.72703 -2.175312,0.95614 -6.367712,2.21205 z m 8.636207,-15.45008 c -0.003,-0.3771 0.09987,-1.3635 0.287089,-1.46363 7.980456,-1.62589 49.936307,-15.38229 50.674887,-13.17101 0.003,0.46412 0.49352,1.44779 -0.19723,1.73931 -7.82187,1.70949 -46.15734,12.68343 -50.764746,12.89533 z m -9.090047,11.30696 c -1.9703,0.59027 -2.75958,0.64433 -2.86977,0.19661 -0.18278,-0.74254 0.67561,-0.67636 4.90103,-1.95753 2.16686,-0.65701 4.100275,-0.6807 4.212475,-0.22795 0.18021,0.72701 -2.051335,0.73297 -6.243735,1.98887 z m 9.15566,-15.2248 c -0.005,-0.37618 0.395262,-1.99735 0.707282,-2.1478 7.694972,-1.47821 47.002621,-13.11606 49.144671,-12.01142 0.007,0.46237 0.95801,1.3154 0.26711,1.60982 -7.58137,1.54312 -46.541781,11.98381 -50.119063,12.5494 z M 154.14571,96.379278 c -34.3467,9.935122 -36.91876,10.507882 -36.92006,9.911532 0,-0.39915 -1.54776,-1.12134 -1.08709,-1.32711 0.4368,-0.19519 17.86458,-4.38348 39.70316,-10.699944 33.64955,-9.732574 39.72951,-11.390173 39.85761,-10.866489 0.11038,0.451181 -0.13337,0.74081 -0.90326,1.073244 -0.57992,0.250415 -18.87258,5.609364 -40.65036,11.908767 z M 62.415485,141.11032 c -1.785272,0.43893 -2.60958,0.40212 -2.60958,-0.12577 0,-0.87332 0.26265,-0.99785 3.89659,-1.84738 2.20636,-0.5158 3.803636,-0.55966 3.803636,-0.0261 -1.113217,1.70196 -3.891245,1.72874 -5.090646,1.99924 z M 152.44857,92.646864 c -34.83142,9.827716 -38.01307,10.756816 -38.14208,10.236276 -0.10121,-0.40829 -1.12618,-0.74289 -0.57871,-0.98886 0.45514,-0.20455 17.46083,-4.855178 40.29689,-11.309611 35.0239,-9.899231 41.54403,-11.638842 41.67297,-11.11864 0.11161,0.450257 -0.13172,0.73994 -0.90157,1.073344 -0.57992,0.251176 -19.63631,5.699521 -42.3475,12.107491 z M 71.978849,126.61874 c -0.003,-0.37711 0.496306,-1.31342 0.683526,-1.41313 7.233773,-1.7159 45.822975,-13.40774 46.316395,-11.76169 0.003,0.46395 1.47508,1.02246 0.7846,1.31379 -7.08844,1.77419 -39.377765,10.54105 -47.784521,11.86103 z M 151.08681,89.544533 c -36.46011,10.400649 -39.99944,11.575497 -40.12834,11.053347 -0.10081,-0.40836 -2.15089,-0.743145 -1.60352,-0.988915 0.45511,-0.20454 19.47403,-5.316852 43.30862,-12.12697 36.63294,-10.466917 43.3592,-12.286704 43.48832,-11.765769 0.11144,0.44963 -0.13235,0.73992 -0.90167,1.073621 -0.57992,0.251543 -20.45347,5.991158 -44.16341,12.754686 z M 61.791177,137.12221 c -2.23915,0.42466 -3.06137,0.39609 -3.06343,-0.10641 -0.004,-0.87969 1.081077,-1.5296 5.128437,-2.34554 2.50685,-0.50532 3.860379,-0.35451 3.863549,0.15677 0.005,0.86488 -2.048026,1.55906 -5.928556,2.29503 z M 72.70711,122.97629 c -0.003,-0.3983 1.036228,-1.73901 1.497498,-1.94541 13.110563,-3.28412 31.444552,-8.26889 41.659082,-11.06506 0.11068,0.44661 1.96681,1.12982 1.19844,1.46025 -6.58178,1.92955 -44.056028,12.67491 -44.35502,11.55022 z M 175.81533,79.464158 c 0,-0.503859 3.82579,-1.445447 3.50287,-2.110927 l -0.46258,-0.953308 -0.31024,-2.72792 c 0.007,-4.049869 0.34744,-5.246837 1.53568,-5.403882 0.59108,-0.07812 0.72656,0.558354 0.72656,3.413474 0,3.691061 0.17113,3.907372 2.30631,2.915221 0.4788,-0.222482 0.47401,0.526235 0.47401,0.850661 0,0.446624 -0.18207,0.198794 -1.98611,1.053779 -1.9436,0.921151 -1.00277,0.737419 5.1057,-0.99693 8.75589,-2.486022 8.62293,-2.460104 8.62293,-1.680888 -3.90893,1.973355 -19.41014,6.782813 -19.51513,5.64072 z M 59.507085,132.55582 c 0,-0.86439 3.10672,-1.78491 7.47504,-2.96425 2.75458,-0.74365 1.280409,1.11597 1.280409,1.65773 -5.826495,2.77744 -8.69633,1.5301 -8.755449,1.30652 z M 187.38822,74.34574 c -1.73676,-0.02052 -2.47556,-1.497693 -2.48602,-3.507712 -0.008,-1.577876 0.21763,-2.251805 1.20941,-3.609648 0.67073,-0.918288 1.48764,-1.794209 1.81536,-1.946488 0.32771,-0.152273 0.59585,-0.411638 0.59585,-0.576343 0,-0.24377 -121.966039,27.423017 -127.724569,29.336216 -1.26685,0.4209 -1.70188,0.37753 -1.70188,-0.16962 0,-0.50727 0.31642,-0.87458 1.02114,-1.18535 C 92.55861,84.949663 166.7968,66.649381 195.70098,61.388696 c 0.11015,0.444451 -0.15938,0.748164 -1.01807,1.147171 -0.87204,0.405209 -1.16786,0.745393 -1.16786,1.342995 0,0.669408 -0.1436,0.800463 -0.87784,0.801153 -3.28062,0.0031 -6.73309,4.603987 -5.45908,6.915536 0.59693,1.08303 1.18026,1.168883 2.81966,0.415024 1.08572,-0.499301 2.04116,-0.408698 2.04116,-1.434982 0,-0.917579 -0.67755,-0.933629 -1.38353,-0.605583 -0.51916,0.241237 -0.51114,-0.711866 -0.51114,-1.062179 0,-0.477378 0.54144,-0.563087 2.00812,-0.943629 l 1.92881,-0.500447 0.13978,1.833527 c 0.0782,1.026008 -0.0962,2.189526 -0.39596,2.641791 -0.64012,0.96577 -5.10954,2.422419 -6.43681,2.406663 z M 74.561901,118.54019 c -0.003,-0.39924 0.707554,-1.86601 1.169914,-2.07133 8.64478,-2.23649 25.841245,-8.73936 36.399105,-10.20147 0.11147,0.44971 2.17082,1.62632 1.39955,1.95414 -5.4495,1.70163 -38.777146,11.16512 -38.968569,10.31866 z M 169.24712,81.696659 c -1.97217,0.625652 -3.60473,0.537237 -4.25942,-0.983634 -0.81661,-1.897024 -0.62272,-3.264261 0.75158,-5.871549 1.93635,-3.673659 3.02852,-4.006803 5.75548,-4.592989 2.97001,-0.63843 3.87086,1.219391 3.63307,3.583172 -0.41305,4.10621 -1.96657,6.623272 -5.88071,7.865 z M 63.705075,128.21545 c -2.96095,0.72775 -3.74415,0.77146 -3.74415,0.20902 0,-0.90807 0.28379,-1.03214 5.3326,-2.33158 3.37137,-0.8677 4.297192,-0.44492 4.297192,0.12455 0,0.90004 -1.025832,0.80349 -5.885642,1.99801 z M 132.8154,91.541103 c -23.8909,6.655198 -27.79654,7.646508 -27.79763,7.055525 0,-0.399993 0.33134,-0.835161 0.79296,-1.039974 0.43683,-0.193787 13.35201,-3.847644 28.70041,-8.119641 23.23849,-6.468091 27.93156,-7.664959 28.05782,-7.155538 0.11041,0.445585 -0.1348,0.734626 -0.90281,1.064133 -0.57991,0.248834 -13.56275,3.936775 -28.85075,8.195495 z M 64.223094,124.79285 c -3.36815,0.90447 -4.19799,0.38449 -4.19799,-0.17757 0,-0.89516 0.60812,-0.55204 5.89571,-1.92829 3.21215,-0.83604 5.165848,-0.83676 5.278378,-0.38261 0.19256,0.77679 -1.497558,1.01724 -6.976098,2.48847 z m 13.421275,-11.3151 c 0,-0.39903 0.980312,-1.72505 1.440822,-1.9313 8.663842,-2.92714 29.934339,-9.43168 31.131889,-6.9877 -4.07564,1.27954 -22.631641,6.18657 -32.572711,8.919 z M 159.67327,79.799421 c -17.10155,4.367262 -73.354631,18.691792 -100.120149,25.327099 -0.003,-0.3771 -0.270636,-1.9355 0.08305,-2.09985 0.80905,-0.37594 100.311339,-25.111536 101.848039,-25.398734 1.67288,-0.312681 1.78316,0.848755 0.15115,1.591866 -0.70474,0.320537 -1.58768,0.581721 -1.96209,0.579619 z M 65.295985,120.56807 c -3.8831,0.97937 -4.8768,1.08995 -4.87876,0.54284 -0.003,-0.91212 0.66546,-1.17922 6.57744,-2.6284 3.67776,-0.90154 5.03028,-1.06693 5.13895,-0.62844 0.19695,0.79469 -0.80561,1.19262 -6.83763,2.714 z M 59.347443,99.666379 c -0.091,-0.36767 -0.247174,-1.767261 0.160946,-1.956911 0.60647,-0.2818 95.993161,-22.288049 102.010791,-23.909329 1.81669,-0.489472 2.38268,-0.470051 2.38268,0.08173 0,0.44406 -0.30689,0.849054 -0.79422,1.048125 -28.61127,7.20366 -87.385701,20.510366 -103.760197,24.736385 z m 21.881174,7.795161 c 2.281335,-2.05491 24.199393,-7.754239 25.040403,-5.77446 -2.4783,2.16859 -24.213194,7.73669 -25.040403,5.77446 z M 59.455392,89.345061 59.485887,86.959435 C 77.408944,83.36381 167.73903,63.312297 196.06865,57.128224 c 0.11142,0.449584 -0.0891,1.521367 -0.0891,1.521367 -26.77356,6.328178 -114.570336,25.99548 -136.524138,30.69547 z m 0.308996,28.241859 c 0,-0.91783 0.412415,-1.36687 8.098745,-3.447 5.14554,-1.39252 5.558292,-0.56273 5.676432,-0.0861 0.20386,0.82255 1.619548,-0.33819 -6.191822,1.79689 -3.293905,1.00741 -7.420787,2.07815 -7.583355,1.73617 z m 26.653116,-15.00665 c 1.644437,-2.12182 14.173226,-4.58031 14.669236,-3.244023 -1.789454,2.167193 -14.176036,4.590913 -14.669236,3.244023 z m -11.510262,7.87869 c -6.80424,1.99844 -10.663877,2.69393 -14.886998,3.75097 -0.20905,-0.8434 -0.658533,-0.9741 0.174451,-1.71667 6.98881,-2.06431 9.726075,-2.94829 16.236041,-4.13703 0.20934,0.84468 0.08672,0.85387 -1.523494,2.10273 z m 3.102348,-4.52854 c -7.970404,1.94504 -11.51165,2.91814 -18.072418,4.58354 0,0 -0.561683,-1.00124 0.189165,-2.1217 5.188815,-1.08656 12.141925,-3.21679 22.351376,-5.56452 -1.496583,1.48779 -2.324078,1.67554 -4.468123,3.10268 z"
       style="fill:#000000;stroke-width:0.111775"
       id="path9677"
       sodipodi:nodetypes="ccccccccccccccccccccccccccccccccccccccccccccccccccccccccccccccccccscccccccccccccccccccccccccccccccccccccccccccccccccccccccccccccccccccccccccccccccccscccscccccccccccccccccccccccccsccsscsssccccccccccscssscsccsscccsccssscsssscccsscccsccccccccccccccscccscsscsscsscccscscccscscssscccsscccsccscscscscsccscscccsccscccssscsssscsssscsccccccccccccscscssscsssccccscccccccccccsssccscsccccsccccssscccsccscccsscsccccccccccc" />
  </g>
</svg>
